<svg xmlns="http://www.w3.org/2000/svg" xmlns:xlink="http://www.w3.org/1999/xlink" width="500"
  zoomAndPan="magnify" viewBox="0 0 375 374.999991" height="500" preserveAspectRatio="xMidYMid meet"
  version="1.0">
  <defs>
    <g />
    <clipPath id="b18cc4387c">
      <path d="M 0 175.144531 L 375 175.144531 L 375 199.855469 L 0 199.855469 Z M 0 175.144531 "
        clip-rule="nonzero" />
    </clipPath>
  </defs>
  <g fill="#ec4899" fill-opacity="1">
    <g transform="translate(77.777343, 225.107827)">
      <g>
        <path
          d="M 51.375 -56.3125 C 51.375 -45.757812 47.742188 -38.6875 40.484375 -35.09375 L 57.09375 0 L 49.0625 0 L 33.4375 -32.78125 C 30.800781 -32.34375 27.90625 -32.125 24.75 -32.125 L 16.28125 -32.125 L 16.28125 0 L 8.796875 0 L 8.796875 -77 L 24.75 -77 C 33.695312 -77 40.222656 -75.601562 44.328125 -72.8125 C 49.023438 -69.664062 51.375 -64.164062 51.375 -56.3125 Z M 16.28125 -70.953125 L 16.28125 -38.171875 L 24.203125 -38.171875 C 30.722656 -38.171875 35.632812 -39.488281 38.9375 -42.125 C 42.238281 -44.769531 43.890625 -49.351562 43.890625 -55.875 C 43.890625 -64.238281 40.078125 -69.082031 32.453125 -70.40625 C 30.023438 -70.769531 27.273438 -70.953125 24.203125 -70.953125 Z M 16.28125 -70.953125 " />
      </g>
    </g>
  </g>
  <g fill="#ec4899" fill-opacity="1">
    <g transform="translate(139.812946, 225.107827)">
      <g>
        <path
          d="M 7.921875 0 L 7.921875 -77 L 15.40625 -77 L 43.671875 -20.6875 L 71.9375 -77 L 79.421875 -77 L 79.421875 0 L 72.484375 0 L 72.484375 -64.234375 L 47.40625 -14.40625 L 39.9375 -14.40625 L 14.84375 -64.234375 L 14.84375 0 Z M 7.921875 0 " />
      </g>
    </g>
  </g>
  <g fill="#ec4899" fill-opacity="1">
    <g transform="translate(228.026689, 225.107827)">
      <g>
        <path
          d="M 58.078125 -66.21875 C 56.171875 -68.125 52.722656 -69.554688 47.734375 -70.515625 C 45.898438 -70.878906 43.515625 -71.0625 40.578125 -71.0625 C 37.648438 -71.0625 34.554688 -70.363281 31.296875 -68.96875 C 28.035156 -67.570312 25.15625 -65.410156 22.65625 -62.484375 C 17.300781 -56.023438 14.625 -46.925781 14.625 -35.1875 C 14.625 -23.457031 17.300781 -15.25 22.65625 -10.5625 C 26.320312 -7.257812 31.179688 -5.609375 37.234375 -5.609375 C 43.285156 -5.609375 49.097656 -6.378906 54.671875 -7.921875 L 55.21875 -34.09375 L 61.265625 -34.09375 L 61.265625 -4.40625 C 58.046875 -2.34375 52.21875 -0.875 43.78125 0 C 41.4375 0.289062 38.960938 0.4375 36.359375 0.4375 C 33.753906 0.4375 30.691406 0.015625 27.171875 -0.828125 C 23.648438 -1.671875 20.382812 -3.375 17.375 -5.9375 C 10.5625 -11.726562 7.15625 -21.367188 7.15625 -34.859375 C 7.15625 -48.359375 10.378906 -58.789062 16.828125 -66.15625 C 23.285156 -73.53125 31.609375 -77.21875 41.796875 -77.21875 L 45.3125 -77 C 49.9375 -76.5625 53.476562 -75.71875 55.9375 -74.46875 C 58.394531 -73.21875 60.0625 -72.117188 60.9375 -71.171875 Z M 58.078125 -66.21875 " />
      </g>
    </g>
  </g>
  <g clip-path="url(#b18cc4387c)">
    <path fill="#ffffff"
      d="M 0 175.144531 L 374.746094 175.144531 L 374.746094 199.660156 L 0 199.660156 Z M 0 175.144531 "
      fill-opacity="1" fill-rule="nonzero" />
  </g>
  <g fill="#ec4899" fill-opacity="1">
    <g transform="translate(75.755477, 191.27555)">
      <g>
        <path
          d="M 3.75 -3.902344 L 2.453125 -3.902344 L 2.453125 -3.375 L 5.253906 0 L 6.695312 0 L 4.265625 -2.890625 C 5.585938 -3.121094 6.257812 -4.15625 6.257812 -5.246094 C 6.257812 -6.464844 5.421875 -7.796875 3.75 -7.796875 L 0.945312 -7.796875 L 0.945312 0 L 2.046875 0 L 2.046875 -6.675781 L 3.75 -6.675781 C 4.683594 -6.675781 5.144531 -5.90625 5.144531 -5.246094 C 5.144531 -4.574219 4.683594 -3.902344 3.75 -3.902344 Z M 3.75 -3.902344 " />
      </g>
    </g>
  </g>
  <g fill="#ec4899" fill-opacity="1">
    <g transform="translate(91.106861, 191.27555)">
      <g>
        <path
          d="M 0.386719 -3.847656 C 0.386719 -1.628906 2.15625 0.144531 4.375 0.144531 C 6.597656 0.144531 8.378906 -1.628906 8.378906 -3.847656 C 8.378906 -6.070312 6.597656 -7.851562 4.375 -7.851562 C 2.15625 -7.851562 0.386719 -6.070312 0.386719 -3.847656 Z M 1.527344 -3.847656 C 1.527344 -5.429688 2.792969 -6.707031 4.375 -6.707031 C 5.960938 -6.707031 7.234375 -5.429688 7.234375 -3.847656 C 7.234375 -2.265625 5.960938 -1 4.375 -1 C 2.792969 -1 1.527344 -2.265625 1.527344 -3.847656 Z M 1.527344 -3.847656 " />
      </g>
    </g>
  </g>
  <g fill="#ec4899" fill-opacity="1">
    <g transform="translate(108.744637, 191.27555)">
      <g>
        <path
          d="M 3.707031 -7.761719 L 0.945312 -7.761719 L 0.945312 0 L 3.707031 0 C 6.222656 0 7.488281 -1.914062 7.488281 -3.835938 C 7.488281 -5.761719 6.222656 -7.761719 3.707031 -7.761719 Z M 3.707031 -1.109375 L 2.054688 -1.109375 L 2.054688 -6.652344 L 3.707031 -6.652344 C 5.488281 -6.652344 6.386719 -5.199219 6.386719 -3.835938 C 6.386719 -2.472656 5.488281 -1.109375 3.707031 -1.109375 Z M 3.707031 -1.109375 " />
      </g>
    </g>
  </g>
  <g fill="#ec4899" fill-opacity="1">
    <g transform="translate(125.514024, 191.27555)">
      <g>
        <path
          d="M 6.851562 -4.992188 L 8.058594 -4.992188 C 7.640625 -7.082031 5.828125 -7.816406 4.320312 -7.816406 C 2.15625 -7.816406 0.460938 -6.15625 0.460938 -3.835938 C 0.460938 -1.527344 2.121094 0.132812 4.320312 0.132812 C 5.75 0.132812 7.355469 -0.914062 7.894531 -2.40625 L 7.894531 -2.398438 C 8.003906 -2.660156 8.058594 -3.101562 8.113281 -3.761719 L 3.882812 -3.761719 L 3.882812 -2.628906 L 6.785156 -2.628906 C 6.320312 -1.484375 5.289062 -0.957031 4.320312 -0.957031 C 2.78125 -0.957031 1.59375 -2.175781 1.59375 -3.835938 C 1.59375 -5.488281 2.78125 -6.683594 4.320312 -6.683594 C 5.320312 -6.683594 6.53125 -6.257812 6.851562 -4.992188 Z M 6.851562 -4.992188 " />
      </g>
    </g>
  </g>
  <g fill="#ec4899" fill-opacity="1">
    <g transform="translate(143.008897, 191.27555)">
      <g>
        <path
          d="M 5.640625 -1.109375 L 2.066406 -1.109375 L 2.066406 -3.375 L 5.550781 -3.375 L 5.550781 -4.496094 L 2.066406 -4.496094 L 2.066406 -6.664062 L 5.628906 -6.664062 L 5.628906 -7.773438 L 0.945312 -7.773438 L 0.945312 0 L 5.640625 0 Z M 5.640625 -1.109375 " />
      </g>
    </g>
  </g>
  <g fill="#ec4899" fill-opacity="1">
    <g transform="translate(157.942584, 191.27555)">
      <g>
        <path
          d="M 3.75 -3.902344 L 2.453125 -3.902344 L 2.453125 -3.375 L 5.253906 0 L 6.695312 0 L 4.265625 -2.890625 C 5.585938 -3.121094 6.257812 -4.15625 6.257812 -5.246094 C 6.257812 -6.464844 5.421875 -7.796875 3.75 -7.796875 L 0.945312 -7.796875 L 0.945312 0 L 2.046875 0 L 2.046875 -6.675781 L 3.75 -6.675781 C 4.683594 -6.675781 5.144531 -5.90625 5.144531 -5.246094 C 5.144531 -4.574219 4.683594 -3.902344 3.75 -3.902344 Z M 3.75 -3.902344 " />
      </g>
    </g>
  </g>
  <g fill="#ec4899" fill-opacity="1">
    <g transform="translate(173.293967, 191.27555)">
      <g>
        <path
          d="M 4.792969 -5.707031 L 5.894531 -5.75 C 5.695312 -7.15625 4.464844 -7.773438 3.277344 -7.773438 C 2.386719 -7.773438 1.460938 -7.421875 0.945312 -6.75 C 0.660156 -6.378906 0.515625 -5.9375 0.515625 -5.476562 C 0.515625 -5.421875 0.527344 -5.355469 0.527344 -5.289062 L 0.527344 -5.300781 C 0.648438 -3.695312 2.054688 -3.429688 3.253906 -3.308594 C 4.023438 -3.234375 4.816406 -3.132812 4.949219 -2.550781 C 4.96875 -2.453125 4.980469 -2.363281 4.980469 -2.285156 C 4.980469 -1.496094 4.078125 -1.035156 3.253906 -1.035156 C 2.539062 -1.035156 1.671875 -1.40625 1.59375 -2.121094 L 1.59375 -2.078125 L 1.582031 -2.242188 L 0.460938 -2.222656 L 0.472656 -2.011719 C 0.617188 -0.636719 2.054688 0.0664062 3.242188 0.0664062 C 4.628906 0.0664062 6.101562 -0.792969 6.101562 -2.277344 C 6.101562 -2.429688 6.082031 -2.617188 6.046875 -2.78125 C 5.75 -4.011719 4.441406 -4.289062 3.386719 -4.421875 C 2.527344 -4.496094 1.636719 -4.605469 1.636719 -5.496094 C 1.636719 -5.71875 1.691406 -5.9375 1.824219 -6.101562 C 2.144531 -6.507812 2.726562 -6.683594 3.253906 -6.683594 C 3.914062 -6.683594 4.640625 -6.386719 4.792969 -5.707031 Z M 4.792969 -5.707031 " />
      </g>
    </g>
  </g>
  <g fill="#ec4899" fill-opacity="1">
    <g transform="translate(188.634359, 191.27555)">
      <g />
    </g>
  </g>
  <g fill="#ec4899" fill-opacity="1">
    <g transform="translate(200.171445, 191.27555)">
      <g>
        <path
          d="M 0.945312 0 L 2.054688 0 L 2.054688 -5.421875 L 4.066406 -2.429688 L 4.695312 -2.429688 L 6.707031 -5.421875 L 6.707031 0 L 7.804688 0 L 7.804688 -7.695312 L 6.925781 -7.695312 L 4.386719 -3.957031 L 1.847656 -7.695312 L 0.945312 -7.695312 Z M 0.945312 0 " />
      </g>
    </g>
  </g>
  <g fill="#ec4899" fill-opacity="1">
    <g transform="translate(217.710293, 191.27555)">
      <g />
    </g>
  </g>
  <g fill="#ec4899" fill-opacity="1">
    <g transform="translate(229.247378, 191.27555)">
      <g>
        <path
          d="M 6.851562 -4.992188 L 8.058594 -4.992188 C 7.640625 -7.082031 5.828125 -7.816406 4.320312 -7.816406 C 2.15625 -7.816406 0.460938 -6.15625 0.460938 -3.835938 C 0.460938 -1.527344 2.121094 0.132812 4.320312 0.132812 C 5.75 0.132812 7.355469 -0.914062 7.894531 -2.40625 L 7.894531 -2.398438 C 8.003906 -2.660156 8.058594 -3.101562 8.113281 -3.761719 L 3.882812 -3.761719 L 3.882812 -2.628906 L 6.785156 -2.628906 C 6.320312 -1.484375 5.289062 -0.957031 4.320312 -0.957031 C 2.78125 -0.957031 1.59375 -2.175781 1.59375 -3.835938 C 1.59375 -5.488281 2.78125 -6.683594 4.320312 -6.683594 C 5.320312 -6.683594 6.53125 -6.257812 6.851562 -4.992188 Z M 6.851562 -4.992188 " />
      </g>
    </g>
  </g>
  <g fill="#ec4899" fill-opacity="1">
    <g transform="translate(246.742258, 191.27555)">
      <g>
        <path
          d="M 3.484375 -6.738281 L 4.914062 -6.738281 L 4.914062 -7.761719 L 0.945312 -7.761719 L 0.945312 -6.738281 L 2.375 -6.738281 L 2.375 -1.035156 L 0.945312 -1.035156 L 0.945312 0 L 4.914062 0 L 4.914062 -1.035156 L 3.484375 -1.035156 Z M 3.484375 -6.738281 " />
      </g>
    </g>
  </g>
  <g fill="#ec4899" fill-opacity="1">
    <g transform="translate(261.390146, 191.27555)">
      <g>
        <path
          d="M 2.398438 -6.71875 L 2.398438 0 L 3.507812 0 L 3.507812 -6.71875 L 5.828125 -6.71875 L 5.828125 -7.773438 L 0.0664062 -7.773438 L 0.0664062 -6.71875 Z M 2.398438 -6.71875 " />
      </g>
    </g>
  </g>
  <g fill="#ec4899" fill-opacity="1">
    <g transform="translate(276.092987, 191.27555)">
      <g>
        <path
          d="M 1.902344 -1.945312 L 5.023438 -1.945312 L 5.761719 0 L 6.949219 0 L 3.859375 -7.796875 L 3.046875 -7.796875 L -0.0429688 0 L 1.15625 0 Z M 4.617188 -2.992188 L 2.308594 -2.992188 L 3.464844 -6.023438 Z M 4.617188 -2.992188 " />
      </g>
    </g>
  </g>
  <g fill="#ec4899" fill-opacity="1">
    <g transform="translate(291.862075, 191.27555)">
      <g>
        <path
          d="M 3.695312 0.078125 C 5.015625 0.078125 6.53125 -0.738281 6.53125 -2.296875 L 6.53125 -7.773438 L 5.410156 -7.773438 L 5.410156 -2.308594 C 5.410156 -1.460938 4.496094 -1.035156 3.695312 -1.035156 C 2.878906 -1.035156 1.96875 -1.453125 1.96875 -2.296875 L 1.96875 -7.773438 L 0.847656 -7.773438 L 0.847656 -2.308594 C 0.847656 -0.738281 2.34375 0.078125 3.695312 0.078125 Z M 3.695312 0.078125 " />
      </g>
    </g>
  </g>
</svg>