<?xml version="1.0" encoding="UTF-8" standalone="no"?>
<!-- Created with Inkscape (http://www.inkscape.org/) -->

<svg xmlns:dc="http://purl.org/dc/elements/1.1/" xmlns:cc="http://creativecommons.org/ns#"
  xmlns:rdf="http://www.w3.org/1999/02/22-rdf-syntax-ns#" xmlns:svg="http://www.w3.org/2000/svg"
  xmlns="http://www.w3.org/2000/svg" xmlns:sodipodi="http://sodipodi.sourceforge.net/DTD/sodipodi-0.dtd"
  xmlns:inkscape="http://www.inkscape.org/namespaces/inkscape" version="1.1" id="svg2131" xml:space="preserve"
  width="800" height="800" viewBox="0 0 800 800" sodipodi:docname="blue-dots-object-freesvg.org.svg"
  inkscape:version="0.92.4 (5da689c313, 2019-01-14)">
  <metadata id="metadata2137">
    <rdf:RDF>
      <cc:Work rdf:about="">
        <dc:format>image/svg+xml</dc:format>
        <dc:type rdf:resource="http://purl.org/dc/dcmitype/StillImage" />
        <dc:title></dc:title>
      </cc:Work>
    </rdf:RDF>
  </metadata>
  <defs id="defs2135">
    <clipPath clipPathUnits="userSpaceOnUse" id="clipPath2147">
      <path d="M 0,600 H 600 V 0 H 0 Z" id="path2145" inkscape:connector-curvature="0" />
    </clipPath>
    <linearGradient x1="0" y1="0" x2="1" y2="0" gradientUnits="userSpaceOnUse"
      gradientTransform="matrix(592.11914,0,0,-592.11914,6.1708984,300.91309)" spreadMethod="pad"
      id="linearGradient2167">
      <stop style="stop-opacity:1;stop-color:#ffffff" offset="0" id="stop2161" />
      <stop style="stop-opacity:1;stop-color:#000000" offset="0.52" id="stop2163" />
      <stop style="stop-opacity:1;stop-color:#ec4899" offset="1" id="stop2165" />
    </linearGradient>
  </defs>
  <sodipodi:namedview pagecolor="#ffffff" bordercolor="#666666" borderopacity="1" objecttolerance="10"
    gridtolerance="10" guidetolerance="10" inkscape:pageopacity="0" inkscape:pageshadow="2" inkscape:window-width="1920"
    inkscape:window-height="1018" id="namedview2133" showgrid="false" inkscape:zoom="0.8577226" inkscape:cx="449.15254"
    inkscape:cy="423.72881" inkscape:window-x="-8" inkscape:window-y="-8" inkscape:window-maximized="1"
    inkscape:current-layer="g2139" />
  <g id="g2139" inkscape:groupmode="layer" inkscape:label="dots-16a-publicdomainvectors [Converted]"
    transform="matrix(1.3333333,0,0,-1.3333333,0,800)">
    <g id="g2141">
      <g id="g2143" clip-path="url(#clipPath2147)">
        <g id="g2149">
          <g id="g2151">
            <g id="g2157">
              <g id="g2159">
                <path
                  d="m 313.961,422.052 c -2.192,-1.354 -2.529,-2.678 -0.719,-2.955 1.837,-0.28 5.163,0.625 7.392,2.017 2.22,1.386 2.469,2.702 0.594,2.945 -1.848,0.236 -5.084,-0.659 -7.267,-2.007 m 201.501,14.374 c 1.625,0.321 2.67,0.999 2.332,1.511 -0.336,0.507 -1.91,0.655 -3.513,0.334 -1.599,-0.321 -2.636,-0.991 -2.319,-1.498 0.317,-0.51 1.882,-0.669 3.5,-0.347 m -163.867,-2.355 c -2.12,-1.062 -2.79,-2.253 -1.477,-2.663 1.329,-0.413 4.18,0.13 6.346,1.22 2.16,1.088 2.783,2.285 1.406,2.673 -1.357,0.384 -4.157,-0.169 -6.275,-1.23 m 102.388,11.022 c -0.624,0.525 -2.649,0.486 -4.524,-0.081 -1.865,-0.568 -2.896,-1.453 -2.299,-1.986 0.599,-0.536 2.623,-0.511 4.522,0.061 1.905,0.575 2.936,1.475 2.301,2.006 m -52.352,-2.155 c -0.962,0.476 -3.372,0.204 -5.392,-0.605 -2.017,-0.808 -2.914,-1.857 -1.993,-2.35 0.93,-0.499 3.359,-0.239 5.42,0.584 2.062,0.825 2.938,1.889 1.965,2.371 m 194.751,-30.785 c 1.025,0.079 1.777,0.429 1.681,0.781 -0.088,0.351 -0.997,0.57 -2.014,0.49 -1.015,-0.08 -1.766,-0.427 -1.679,-0.778 0.091,-0.35 0.987,-0.571 2.012,-0.493 m -16.771,31.514 c -0.838,-0.149 -1.344,-0.467 -1.132,-0.71 0.208,-0.245 1.064,-0.324 1.902,-0.174 0.848,0.149 1.354,0.467 1.14,0.713 -0.216,0.243 -1.067,0.32 -1.91,0.171 m -81.858,10.862 c -1.335,-0.379 -2.025,-0.967 -1.537,-1.317 0.488,-0.352 1.982,-0.328 3.336,0.054 1.352,0.382 2.044,0.976 1.535,1.324 -0.503,0.346 -1.995,0.318 -3.334,-0.061 m -157.95,-20.978 c 1.559,-0.192 4.32,0.535 6.142,1.624 1.814,1.084 1.981,2.096 0.394,2.264 -1.571,0.167 -4.275,-0.556 -6.063,-1.618 -1.793,-1.064 -2.016,-2.082 -0.473,-2.27 m 98.785,20.706 c -0.811,0.343 -2.743,0.131 -4.324,-0.472 -1.578,-0.601 -2.224,-1.369 -1.442,-1.721 0.791,-0.354 2.738,-0.149 4.338,0.46 1.607,0.612 2.241,1.388 1.428,1.733 m -50.56,-6.516 c -1.156,0.279 -3.472,-0.164 -5.184,-0.987 -1.714,-0.823 -2.2,-1.729 -1.075,-2.024 1.137,-0.296 3.483,0.14 5.229,0.979 1.741,0.839 2.197,1.749 1.03,2.032 m -75.364,-25.604 c 1.821,1.364 1.557,2.452 -0.556,2.445 -2.085,-0.01 -5.211,-1.089 -7.018,-2.421 -1.823,-1.344 -1.651,-2.457 0.422,-2.478 2.1,-0.022 5.317,1.081 7.152,2.454 m -15.782,-2.844 c 2.293,0.217 5.34,1.474 6.769,2.792 1.415,1.307 0.687,2.161 -1.594,1.921 -2.257,-0.235 -5.218,-1.457 -6.645,-2.742 -1.442,-1.298 -0.799,-2.186 1.47,-1.971 m 70.324,27.943 c 1.279,-0.123 3.495,0.445 4.936,1.268 1.434,0.822 1.534,1.574 0.235,1.684 -1.285,0.109 -3.465,-0.457 -4.882,-1.263 -1.421,-0.809 -1.559,-1.566 -0.289,-1.689 M 479.265,465.5 c -0.6,0.215 -1.97,0.069 -3.064,-0.327 -1.093,-0.394 -1.502,-0.891 -0.914,-1.109 0.591,-0.22 1.97,-0.077 3.073,0.322 1.105,0.399 1.509,0.898 0.905,1.114 m 74.571,-1.466 c -0.672,-0.176 -0.992,-0.447 -0.715,-0.605 0.275,-0.158 1.049,-0.144 1.721,0.031 0.676,0.178 0.993,0.45 0.714,0.609 -0.283,0.157 -1.053,0.141 -1.72,-0.035 M 420.08,459.852 c -0.923,0.19 -2.724,-0.143 -4.031,-0.745 -1.305,-0.6 -1.635,-1.246 -0.728,-1.444 0.914,-0.199 2.731,0.132 4.055,0.74 1.323,0.61 1.634,1.259 0.704,1.449 m -92.007,-25.664 c 1.729,0.008 4.348,0.877 5.829,1.933 1.471,1.049 1.237,1.872 -0.499,1.844 -1.721,-0.026 -4.28,-0.881 -5.743,-1.912 -1.472,-1.035 -1.296,-1.874 0.413,-1.865 m -8.571,2.874 c -1.821,-0.2 -4.207,-1.148 -5.355,-2.128 -1.153,-0.987 -0.627,-1.642 1.197,-1.457 1.842,0.189 4.284,1.158 5.433,2.157 1.141,0.994 0.56,1.629 -1.275,1.428 m 36.322,12.21 c 1.149,0.783 0.95,1.384 -0.427,1.346 -1.37,-0.037 -3.393,-0.689 -4.538,-1.461 -1.146,-0.774 -0.983,-1.382 0.379,-1.357 1.371,0.027 3.431,0.687 4.586,1.472 m 95.621,21.144 c 0.646,-0.115 1.891,0.106 2.775,0.496 0.885,0.39 1.074,0.796 0.422,0.91 -0.652,0.111 -1.89,-0.112 -2.767,-0.499 -0.876,-0.386 -1.071,-0.791 -0.43,-0.907 m 73.058,5.949 c 0.53,0.181 0.706,0.403 0.397,0.495 -0.308,0.095 -0.985,0.022 -1.511,-0.157 -0.528,-0.181 -0.706,-0.402 -0.402,-0.495 0.309,-0.094 0.988,-0.023 1.516,0.157 M 395.854,460.392 c 0.985,-0.072 2.656,0.345 3.728,0.932 1.067,0.584 1.118,1.111 0.123,1.175 -0.988,0.064 -2.641,-0.352 -3.699,-0.928 -1.059,-0.578 -1.131,-1.106 -0.152,-1.179 M 285.186,419.448 c -1.057,-1.224 0.011,-1.878 2.417,-1.446 2.426,0.438 5.248,1.806 6.272,3.04 1.013,1.222 -0.129,1.837 -2.523,1.389 -2.374,-0.443 -5.122,-1.772 -6.166,-2.983 m 49.199,27.246 c 1.428,0.154 3.316,0.878 4.209,1.614 0.885,0.73 0.439,1.186 -0.988,1.024 -1.416,-0.162 -3.272,-0.875 -4.161,-1.598 -0.892,-0.726 -0.48,-1.194 0.94,-1.04 m -32.436,-15.132 c 1.913,0.347 4.153,1.387 4.986,2.316 0.825,0.919 -0.057,1.37 -1.954,1.016 -1.879,-0.351 -4.073,-1.368 -4.916,-2.281 -0.851,-0.921 -0.016,-1.397 1.884,-1.051 m -24.047,-15.675 c 2.505,0.637 5.057,2.08 5.681,3.207 0.619,1.114 -0.89,1.488 -3.346,0.853 -2.442,-0.632 -4.941,-2.035 -5.605,-3.149 -0.673,-1.127 0.781,-1.542 3.27,-0.911 m 150.817,58.665 c -0.67,0.031 -1.775,-0.237 -2.471,-0.602 -0.694,-0.365 -0.722,-0.688 -0.056,-0.721 0.665,-0.034 1.779,0.236 2.477,0.604 0.701,0.366 0.72,0.688 0.05,0.719 m 63.743,9.283 c -0.317,0.044 -0.904,-0.06 -1.314,-0.231 -0.407,-0.172 -0.486,-0.349 -0.172,-0.392 0.315,-0.047 0.907,0.056 1.317,0.229 0.411,0.173 0.487,0.349 0.169,0.394 M 375.271,460.76 c 1.025,0.033 2.545,0.506 3.39,1.055 0.845,0.549 0.689,0.96 -0.342,0.923 -1.022,-0.038 -2.524,-0.508 -3.362,-1.051 -0.839,-0.544 -0.704,-0.96 0.314,-0.927 m 83.464,25.185 c 0.315,-0.009 0.823,0.112 1.141,0.272 0.316,0.159 0.32,0.295 0.006,0.305 -0.315,0.009 -0.824,-0.113 -1.14,-0.272 -0.315,-0.159 -0.319,-0.295 -0.007,-0.305 M 354.152,459.183 c 1.041,0.119 2.411,0.628 3.062,1.133 0.643,0.507 0.32,0.814 -0.719,0.69 -1.031,-0.12 -2.39,-0.625 -3.033,-1.126 -0.65,-0.503 -0.343,-0.815 0.69,-0.697 m 46.083,14.646 c -0.544,-0.336 -0.443,-0.586 0.226,-0.556 0.67,0.028 1.659,0.329 2.202,0.666 0.545,0.34 0.438,0.586 -0.236,0.555 -0.671,-0.032 -1.652,-0.328 -2.192,-0.665 m -132.25,-60.804 c 2.532,0.815 4.782,2.3 5.015,3.299 0.229,0.987 -1.598,1.122 -4.072,0.319 -2.464,-0.801 -4.685,-2.248 -4.971,-3.246 -0.292,-1.012 1.506,-1.184 4.028,-0.372 m 20.176,15.547 c 1.95,0.489 3.971,1.576 4.502,2.418 0.525,0.834 -0.618,1.106 -2.541,0.617 -1.912,-0.485 -3.897,-1.548 -4.45,-2.383 -0.558,-0.842 0.55,-1.139 2.489,-0.652 m 28.868,15.577 c 1.454,0.266 3.171,1.033 3.821,1.706 0.644,0.669 -0.013,0.99 -1.458,0.72 -1.439,-0.269 -3.126,-1.022 -3.782,-1.687 -0.658,-0.672 -0.03,-1.004 1.419,-0.739 m -45.846,-19.268 c -0.276,-0.752 1.074,-0.871 3.024,-0.258 1.957,0.615 3.746,1.726 3.988,2.474 0.24,0.738 -1.132,0.837 -3.055,0.228 -1.917,-0.608 -3.685,-1.697 -3.957,-2.444 M 258.038,409.49 c 2.514,0.977 4.433,2.469 4.282,3.324 -0.145,0.842 -2.251,0.742 -4.704,-0.213 -2.447,-0.954 -4.36,-2.417 -4.275,-3.28 0.088,-0.876 2.188,-0.805 4.697,0.169 m 41.413,30.865 c 1.463,0.361 3.002,1.153 3.43,1.761 0.424,0.605 -0.413,0.797 -1.862,0.434 -1.445,-0.362 -2.962,-1.141 -3.4,-1.744 -0.443,-0.608 0.373,-0.812 1.832,-0.451 m 128.667,45.46 c 0.24,0.144 0.189,0.247 -0.114,0.229 -0.304,-0.017 -0.747,-0.146 -0.989,-0.291 -0.24,-0.142 -0.19,-0.246 0.114,-0.229 0.305,0.016 0.746,0.146 0.989,0.291 m -95.241,-29.826 c 1.037,0.191 2.269,0.722 2.744,1.181 0.472,0.459 0.01,0.672 -1.024,0.479 -1.031,-0.193 -2.248,-0.716 -2.725,-1.173 -0.476,-0.457 -0.031,-0.678 1.005,-0.487 m 41.935,15.151 c 0.665,0.08 1.54,0.394 1.953,0.702 0.414,0.306 0.206,0.489 -0.457,0.408 -0.662,-0.081 -1.53,-0.394 -1.945,-0.7 -0.411,-0.305 -0.214,-0.49 0.449,-0.41 m -25.266,-3.876 c 0.653,0.121 1.428,0.443 1.728,0.719 0.304,0.277 0.02,0.401 -0.631,0.279 -0.648,-0.121 -1.418,-0.442 -1.722,-0.717 -0.301,-0.275 -0.025,-0.402 0.625,-0.281 m -37.865,-15.833 c 1.03,0.252 2.13,0.794 2.448,1.206 0.316,0.41 -0.258,0.538 -1.283,0.283 -1.02,-0.251 -2.108,-0.787 -2.431,-1.197 -0.327,-0.413 0.239,-0.545 1.266,-0.292 m -51.405,-31.62 c 1.94,0.73 3.486,1.847 3.452,2.49 -0.035,0.636 -1.608,0.562 -3.51,-0.156 -1.902,-0.716 -3.441,-1.816 -3.442,-2.463 -0.001,-0.654 1.564,-0.599 3.5,0.129 m 136.274,62.923 c 0.291,0.037 0.676,0.171 0.857,0.3 0.183,0.129 0.091,0.204 -0.201,0.167 -0.292,-0.038 -0.676,-0.172 -0.858,-0.301 -0.182,-0.129 -0.091,-0.202 0.202,-0.166 M 281.854,435.459 c 1.457,0.45 2.822,1.254 3.043,1.793 0.218,0.535 -0.775,0.602 -2.216,0.157 -1.434,-0.444 -2.785,-1.236 -3.021,-1.775 -0.239,-0.54 0.74,-0.621 2.194,-0.175 m -35.372,-27.558 c -2.393,-1.09 -3.972,-2.544 -3.517,-3.256 0.458,-0.721 2.824,-0.406 5.277,0.713 2.45,1.118 4.01,2.591 3.49,3.284 -0.512,0.683 -2.858,0.349 -5.25,-0.741 m 17.914,21.68 c 1.439,0.526 2.628,1.334 2.654,1.799 0.026,0.46 -1.106,0.41 -2.526,-0.11 -1.418,-0.52 -2.601,-1.317 -2.647,-1.785 -0.044,-0.47 1.081,-0.429 2.519,0.096 m 26.32,16.108 c 1.015,0.306 1.987,0.853 2.166,1.217 0.179,0.364 -0.497,0.407 -1.506,0.102 -1.006,-0.306 -1.969,-0.846 -2.155,-1.209 -0.187,-0.366 0.48,-0.417 1.495,-0.11 m 76.404,32.436 c 0.283,0.052 0.618,0.187 0.751,0.301 0.132,0.115 0.011,0.165 -0.269,0.112 -0.28,-0.052 -0.617,-0.187 -0.749,-0.302 -0.133,-0.114 -0.013,-0.165 0.267,-0.111 M 232.998,399.448 c 0.827,-0.55 3.417,0.011 5.769,1.254 2.343,1.237 3.517,2.662 2.64,3.179 -0.867,0.511 -3.414,-0.056 -5.707,-1.263 -2.301,-1.211 -3.517,-2.628 -2.702,-3.17 m 91.811,62.509 c 0.637,0.154 1.323,0.481 1.53,0.726 0.206,0.245 -0.142,0.317 -0.776,0.163 -0.634,-0.156 -1.315,-0.479 -1.523,-0.724 -0.21,-0.245 0.134,-0.32 0.769,-0.165 m -78.268,-47.738 c 1.9,0.832 3.19,1.94 2.888,2.469 -0.299,0.524 -2.05,0.283 -3.914,-0.535 -1.863,-0.817 -3.161,-1.912 -2.897,-2.451 0.267,-0.543 2.025,-0.316 3.923,0.517 m 54.108,41.212 c 0.622,0.185 1.226,0.51 1.349,0.727 0.123,0.216 -0.28,0.241 -0.899,0.057 -0.617,-0.184 -1.219,-0.507 -1.344,-0.724 -0.126,-0.217 0.274,-0.244 0.894,-0.06 m -77.027,-61.626 c 1.188,-0.358 3.958,0.446 6.165,1.794 2.193,1.34 2.958,2.687 1.733,3.012 -1.211,0.32 -3.919,-0.477 -6.075,-1.783 -2.168,-1.314 -2.995,-2.668 -1.823,-3.023 m 115.2,78.258 c 0.273,0.065 0.567,0.2 0.657,0.3 0.094,0.103 -0.053,0.131 -0.323,0.065 -0.271,-0.065 -0.562,-0.199 -0.655,-0.3 -0.094,-0.102 0.052,-0.13 0.321,-0.065 m -68.754,-33.169 c 0.999,0.355 1.85,0.9 1.9,1.216 0.05,0.314 -0.714,0.281 -1.703,-0.072 -0.989,-0.354 -1.835,-0.894 -1.895,-1.211 -0.059,-0.318 0.701,-0.289 1.698,0.067 m -38.879,-29.473 c -1.809,-0.909 -2.854,-1.986 -2.326,-2.405 0.531,-0.426 2.461,-0.021 4.302,0.908 1.835,0.925 2.858,2.006 2.294,2.411 -0.558,0.402 -2.466,-0.007 -4.27,-0.914 m 16.013,13.38 c 1.413,0.598 2.424,1.399 2.263,1.787 -0.159,0.385 -1.416,0.217 -2.808,-0.374 -1.391,-0.589 -2.406,-1.382 -2.266,-1.776 0.142,-0.395 1.4,-0.233 2.811,0.363 m -31.525,-23.117 c 0.796,-0.292 2.874,0.292 4.631,1.303 1.75,1.011 2.49,2.049 1.668,2.321 -0.814,0.27 -2.86,-0.311 -4.584,-1.301 -1.73,-0.992 -2.504,-2.032 -1.715,-2.323 m 61.382,48.141 c 0.607,0.213 1.137,0.536 1.184,0.723 0.048,0.187 -0.404,0.168 -1.008,-0.043 -0.602,-0.21 -1.131,-0.532 -1.181,-0.719 -0.051,-0.189 0.398,-0.171 1.005,0.039 m 34.5,16.963 c 0.259,0.077 0.518,0.21 0.574,0.298 0.058,0.09 -0.107,0.1 -0.368,0.022 -0.26,-0.075 -0.517,-0.209 -0.577,-0.296 -0.056,-0.09 0.11,-0.099 0.371,-0.024 m -61.76,-33.661 c 0.977,0.4 1.713,0.942 1.64,1.207 -0.072,0.265 -0.917,0.155 -1.887,-0.243 -0.969,-0.398 -1.702,-0.936 -1.64,-1.203 0.064,-0.269 0.908,-0.164 1.887,0.239 m -33.894,-40.515 c -1.992,-1.4 -2.399,-2.66 -0.878,-2.807 1.538,-0.15 4.443,0.897 6.455,2.327 1.997,1.42 2.327,2.658 0.768,2.776 -1.54,0.116 -4.368,-0.908 -6.345,-2.296 m 14.485,24.573 c 1.375,0.665 2.206,1.452 1.863,1.757 -0.341,0.303 -1.714,0.016 -3.069,-0.638 -1.358,-0.657 -2.199,-1.439 -1.877,-1.752 0.326,-0.314 1.708,-0.031 3.083,0.633 m -19.646,-9.32 c 0.51,-0.226 2.006,0.183 3.336,0.913 1.326,0.728 1.97,1.493 1.444,1.708 -0.522,0.214 -2.003,-0.194 -3.314,-0.911 -1.314,-0.72 -1.973,-1.485 -1.466,-1.71 m 43.261,33.354 c 0.593,0.237 1.055,0.558 1.032,0.717 -0.023,0.158 -0.52,0.095 -1.109,-0.14 -0.591,-0.236 -1.051,-0.555 -1.032,-0.715 0.021,-0.161 0.517,-0.098 1.109,0.138 M 229.95,422.436 c 0.957,0.446 1.575,0.98 1.383,1.194 -0.191,0.21 -1.113,0.023 -2.062,-0.417 -0.947,-0.442 -1.57,-0.974 -1.387,-1.191 0.182,-0.216 1.108,-0.033 2.066,0.414 m -26.708,-30.663 c 1.061,-0.146 3.269,0.623 4.915,1.711 1.636,1.082 2.073,2.058 0.996,2.185 -1.068,0.126 -3.232,-0.629 -4.853,-1.693 -1.628,-1.07 -2.11,-2.058 -1.058,-2.203 m 10.55,-4.912 c -1.857,-0.106 -4.755,-1.353 -6.508,-2.8 -1.769,-1.463 -1.725,-2.595 0.133,-2.517 1.875,0.08 4.857,1.363 6.626,2.852 1.752,1.473 1.624,2.57 -0.251,2.465 m 71.398,69.586 c 0.254,0.085 0.48,0.219 0.507,0.294 0.026,0.077 -0.158,0.07 -0.41,-0.017 -0.253,-0.086 -0.479,-0.218 -0.507,-0.294 -0.026,-0.076 0.158,-0.069 0.41,0.017 m -53.743,-26.805 c 0.581,0.262 0.978,0.58 0.886,0.709 -0.092,0.128 -0.633,0.022 -1.211,-0.239 -0.578,-0.26 -0.974,-0.575 -0.886,-0.707 0.088,-0.131 0.631,-0.024 1.211,0.237 m -30.432,-54.505 c 2.195,0.329 5.192,1.841 6.661,3.357 1.453,1.498 0.845,2.419 -1.324,2.075 -2.153,-0.341 -5.067,-1.804 -6.544,-3.287 -1.495,-1.502 -0.969,-2.47 1.207,-2.145 m 7.318,37.111 c 0.303,-0.163 1.307,0.103 2.241,0.593 0.931,0.49 1.432,1.013 1.121,1.17 -0.312,0.156 -1.309,-0.111 -2.233,-0.594 -0.925,-0.486 -1.432,-1.009 -1.129,-1.169 M 197.19,387.489 c -1.321,-0.034 -3.581,-0.969 -5.068,-2.097 -1.497,-1.138 -1.662,-2.051 -0.345,-2.033 1.327,0.016 3.636,0.971 5.14,2.125 1.491,1.146 1.604,2.039 0.273,2.005 m -2.352,8.924 c 0.699,-0.128 2.303,0.411 3.573,1.203 1.267,0.789 1.709,1.521 0.999,1.637 -0.707,0.116 -2.287,-0.418 -3.542,-1.195 -1.259,-0.781 -1.725,-1.518 -1.03,-1.645 m 64.738,50.694 c 0.246,0.096 0.445,0.226 0.443,0.292 -0.001,0.065 -0.203,0.04 -0.45,-0.056 -0.246,-0.094 -0.444,-0.225 -0.442,-0.291 10e-4,-0.066 0.202,-0.041 0.449,0.055 m -79.804,-60.884 c 0.894,-0.018 2.596,0.661 3.791,1.511 1.187,0.847 1.413,1.535 0.513,1.541 -0.894,0.006 -2.569,-0.662 -3.752,-1.499 -1.19,-0.839 -1.442,-1.537 -0.552,-1.553 m 11.971,16.119 c 0.902,0.534 1.278,1.043 0.844,1.137 -0.433,0.095 -1.506,-0.257 -2.403,-0.785 -0.898,-0.531 -1.285,-1.042 -0.858,-1.141 0.428,-0.099 1.511,0.255 2.417,0.789 m 10.855,-29.79 c 1.098,1.49 -0.007,2.196 -2.442,1.6 -2.418,-0.592 -5.283,-2.26 -6.429,-3.748 -1.161,-1.508 -0.125,-2.27 2.34,-1.679 2.481,0.593 5.418,2.317 6.531,3.827 m 6.753,46.536 c 0.568,0.287 0.899,0.6 0.739,0.697 -0.159,0.097 -0.746,-0.055 -1.312,-0.339 -0.567,-0.286 -0.9,-0.599 -0.743,-0.699 0.157,-0.1 0.746,0.053 1.316,0.341 m -23.029,-40.241 c -1.572,-0.211 -3.897,-1.329 -5.218,-2.511 -1.331,-1.192 -1.146,-2.006 0.435,-1.808 1.591,0.201 3.97,1.348 5.293,2.551 1.31,1.192 1.073,1.98 -0.51,1.768 m 48.25,57.939 c 0.241,0.105 0.414,0.234 0.385,0.287 -0.03,0.054 -0.248,0.012 -0.488,-0.093 -0.241,-0.105 -0.414,-0.233 -0.385,-0.289 0.027,-0.053 0.247,-0.01 0.488,0.095 m -46.871,-29.272 c 0.557,0.316 0.82,0.622 0.59,0.684 -0.23,0.065 -0.864,-0.136 -1.419,-0.449 -0.555,-0.314 -0.822,-0.621 -0.594,-0.686 0.228,-0.066 0.866,0.136 1.423,0.451 m 22.677,18.218 c -0.056,0.04 -0.293,-0.019 -0.529,-0.134 -0.237,-0.116 -0.384,-0.244 -0.329,-0.286 0.055,-0.042 0.293,0.018 0.53,0.134 0.237,0.116 0.384,0.243 0.328,0.286 m -17.547,-63.264 c 2.726,0.874 5.514,2.786 6.209,4.25 0.685,1.441 -0.929,1.893 -3.586,1.032 -2.647,-0.856 -5.387,-2.711 -6.138,-4.166 -0.765,-1.477 0.8,-1.986 3.515,-1.116 m -27.05,12.867 c 1.097,0.11 2.885,0.938 3.982,1.843 1.089,0.899 1.075,1.527 -0.021,1.408 -1.089,-0.116 -2.847,-0.93 -3.939,-1.821 -1.098,-0.897 -1.114,-1.539 -0.022,-1.43 m 7.786,15.588 c 0.867,0.579 1.109,1.067 0.545,1.091 -0.56,0.025 -1.71,-0.42 -2.572,-0.993 -0.867,-0.577 -1.122,-1.068 -0.564,-1.097 0.559,-0.029 1.722,0.418 2.591,0.999 m -0.725,-25.518 c 1.85,0.404 4.256,1.743 5.353,2.98 1.086,1.222 0.469,1.871 -1.359,1.463 -1.816,-0.407 -4.174,-1.713 -5.283,-2.931 -1.121,-1.232 -0.553,-1.915 1.289,-1.512 m -6.785,-9.257 c 2.096,0.632 4.473,2.164 5.291,3.406 0.81,1.229 -0.216,1.705 -2.273,1.078 -2.052,-0.624 -4.388,-2.116 -5.237,-3.35 -0.858,-1.248 0.128,-1.764 2.219,-1.134 m 0.466,38.707 c 0.544,0.345 0.736,0.644 0.43,0.669 -0.305,0.024 -0.99,-0.231 -1.533,-0.574 -0.543,-0.343 -0.738,-0.642 -0.435,-0.669 0.305,-0.029 0.994,0.231 1.538,0.574 m 19.65,18.438 c -0.085,0.03 -0.34,-0.049 -0.574,-0.175 -0.233,-0.127 -0.356,-0.253 -0.273,-0.284 0.082,-0.029 0.339,0.051 0.574,0.178 0.233,0.128 0.356,0.253 0.273,0.281 m -32.989,-49.478 c 1.308,0.258 3.164,1.246 4.133,2.198 0.962,0.944 0.68,1.492 -0.618,1.23 -1.292,-0.261 -3.117,-1.229 -4.089,-2.17 -0.981,-0.948 -0.728,-1.514 0.574,-1.258 m 38.386,-7.249 c 2.906,1.162 5.445,3.229 5.664,4.597 0.214,1.346 -1.905,1.504 -4.731,0.372 -2.822,-1.129 -5.343,-3.143 -5.64,-4.521 -0.301,-1.398 1.802,-1.609 4.707,-0.448 m -38.113,20.767 c 0.698,0.051 1.94,0.604 2.763,1.232 0.821,0.624 0.913,1.083 0.212,1.027 -0.699,-0.057 -1.924,-0.604 -2.743,-1.224 -0.824,-0.622 -0.931,-1.088 -0.232,-1.035 m -16.428,-13.571 c 0.853,0.149 2.168,0.82 2.931,1.493 0.759,0.671 0.681,1.088 -0.169,0.935 -0.847,-0.15 -2.146,-0.812 -2.908,-1.48 -0.767,-0.671 -0.704,-1.098 0.146,-0.948 m 8.306,-8.428 c -1.5,-0.425 -3.369,-1.56 -4.186,-2.54 -0.824,-0.991 -0.27,-1.455 1.249,-1.028 1.525,0.429 3.421,1.586 4.225,2.575 0.798,0.981 0.215,1.42 -1.288,0.993 m -1.099,24.972 c 0.389,0.019 1.134,0.34 1.663,0.716 0.527,0.376 0.638,0.664 0.249,0.643 -0.387,-0.02 -1.126,-0.338 -1.653,-0.711 -0.528,-0.376 -0.645,-0.665 -0.259,-0.648 m 48.296,-29.061 c 3.008,1.447 5.183,3.621 4.87,4.84 -0.308,1.2 -2.917,1.023 -5.835,-0.378 -2.925,-1.405 -5.122,-3.538 -4.901,-4.783 0.225,-1.266 2.855,-1.131 5.866,0.321 m -30.913,-4.269 c 2.318,0.882 4.593,2.594 5.074,3.812 0.474,1.201 -0.985,1.464 -3.25,0.6 -2.262,-0.862 -4.515,-2.536 -5.041,-3.755 -0.533,-1.235 0.902,-1.535 3.217,-0.657 m 0.429,52.39 c 0.231,0.14 0.327,0.264 0.213,0.28 -0.113,0.014 -0.391,-0.088 -0.622,-0.226 -0.231,-0.14 -0.328,-0.264 -0.215,-0.28 0.113,-0.014 0.392,0.088 0.624,0.226 m -39.965,-50.144 c 1.019,0.266 2.401,1.068 3.081,1.787 0.675,0.715 0.399,1.074 -0.611,0.808 -1.007,-0.266 -2.374,-1.058 -3.058,-1.771 -0.688,-0.719 -0.429,-1.09 0.588,-0.824 m 38.324,-6.852 c -2.435,-1.12 -4.518,-2.958 -4.655,-4.122 -0.139,-1.18 1.771,-1.218 4.267,-0.068 2.492,1.147 4.575,3.02 4.651,4.17 0.077,1.133 -1.832,1.137 -4.263,0.02 m -26.439,-3.009 c 1.74,0.627 3.634,1.961 4.225,2.97 0.586,0.999 -0.332,1.299 -2.041,0.68 -1.708,-0.617 -3.583,-1.926 -4.197,-2.933 -0.62,-1.016 0.278,-1.342 2.013,-0.717 m -9.768,25.673 c 0.48,0.074 1.284,0.468 1.791,0.88 0.505,0.409 0.523,0.68 0.043,0.605 -0.479,-0.074 -1.277,-0.465 -1.783,-0.873 -0.507,-0.411 -0.532,-0.684 -0.051,-0.612 m 14.263,19.321 c 0.229,0.152 0.295,0.275 0.148,0.271 -0.147,-0.002 -0.449,-0.128 -0.677,-0.282 -0.229,-0.154 -0.297,-0.277 -0.15,-0.273 0.147,0.003 0.451,0.13 0.679,0.284 m 57.47,-37.597 c 3,1.719 4.692,3.937 3.805,4.949 -0.873,0.993 -3.927,0.447 -6.846,-1.21 -2.935,-1.668 -4.691,-3.867 -3.899,-4.92 0.806,-1.07 3.924,-0.545 6.94,1.181 M 128.578,326.87 c 1.94,0.853 3.773,2.366 4.091,3.367 0.317,0.993 -0.974,1.111 -2.877,0.273 -1.903,-0.837 -3.729,-2.325 -4.081,-3.334 -0.357,-1.018 0.924,-1.159 2.867,-0.306 m -19.402,6.905 c 1.196,0.408 2.628,1.359 3.194,2.118 0.562,0.754 0.055,1.032 -1.127,0.626 -1.181,-0.403 -2.6,-1.34 -3.175,-2.097 -0.58,-0.762 -0.086,-1.054 1.108,-0.647 m 5.344,33.915 c -0.226,-0.169 -0.259,-0.287 -0.075,-0.263 0.184,0.023 0.516,0.18 0.743,0.35 0.225,0.17 0.257,0.289 0.072,0.264 -0.184,-0.023 -0.515,-0.181 -0.74,-0.351 m -7.633,-17.716 c -0.584,-0.143 -1.441,-0.618 -1.917,-1.064 -0.478,-0.448 -0.393,-0.699 0.193,-0.557 0.587,0.143 1.449,0.622 1.926,1.069 0.474,0.449 0.383,0.693 -0.202,0.552 m 97.486,-1.716 c -1.462,0.731 -4.889,-0.207 -7.694,-2.095 -2.829,-1.906 -4.02,-4.098 -2.619,-4.894 1.422,-0.811 4.952,0.133 7.844,2.106 2.865,1.957 3.953,4.14 2.469,4.883 m -38.621,-13.684 c -0.386,1.017 -2.745,0.712 -5.28,-0.67 -2.545,-1.387 -4.353,-3.361 -4.029,-4.42 0.33,-1.071 2.719,-0.79 5.327,0.641 2.598,1.423 4.375,3.42 3.982,4.449 m -34.929,-16.136 c -0.024,0.947 -1.714,0.833 -3.78,-0.248 -2.073,-1.084 -3.771,-2.747 -3.79,-3.719 -0.02,-0.985 1.682,-0.889 3.796,0.222 2.11,1.106 3.797,2.787 3.774,3.745 m 39.563,9.432 c -0.908,0.837 -3.69,0.178 -6.239,-1.466 -2.563,-1.655 -3.971,-3.715 -3.117,-4.602 0.867,-0.899 3.712,-0.245 6.331,1.461 2.603,1.696 3.946,3.759 3.025,4.607 m -69.792,-7.429 c -1.361,-0.572 -2.806,-1.671 -3.231,-2.46 -0.428,-0.796 0.339,-0.978 1.72,-0.398 1.381,0.581 2.833,1.692 3.243,2.481 0.406,0.783 -0.37,0.949 -1.732,0.377 m -8.227,28.964 c 0.22,0.188 0.212,0.3 -0.017,0.25 -0.23,-0.052 -0.593,-0.245 -0.813,-0.433 -0.219,-0.189 -0.212,-0.301 0.017,-0.25 0.229,0.05 0.594,0.245 0.813,0.433 m -3.203,-17.467 c -0.703,-0.228 -1.619,-0.803 -2.051,-1.288 -0.435,-0.489 -0.216,-0.702 0.49,-0.476 0.706,0.228 1.629,0.809 2.058,1.296 0.428,0.486 0.204,0.695 -0.497,0.468 m 112.807,6.363 c 2.048,-0.482 5.874,0.894 8.491,3.059 2.588,2.14 2.96,4.2 0.884,4.614 -2.047,0.41 -5.738,-0.927 -8.299,-3.002 -2.587,-2.098 -3.093,-4.195 -1.076,-4.671 M 92.851,300.962 c 1.562,0.784 2.987,2.072 3.183,2.869 0.195,0.79 -0.894,0.802 -2.432,0.031 -1.54,-0.773 -2.965,-2.048 -3.185,-2.852 -0.22,-0.81 0.87,-0.835 2.434,-0.048 m -22.668,28.241 c -0.281,-0.087 -0.679,-0.326 -0.89,-0.534 -0.21,-0.211 -0.153,-0.313 0.129,-0.228 0.282,0.085 0.682,0.325 0.891,0.536 0.21,0.21 0.152,0.311 -0.13,0.226 m 3.386,-16.829 c -0.834,-0.333 -1.804,-1.027 -2.169,-1.554 -0.367,-0.528 0.016,-0.685 0.857,-0.348 0.84,0.334 1.814,1.036 2.175,1.561 0.358,0.523 -0.029,0.675 -0.863,0.341 m 56.749,-8.976 c 2.217,1.383 3.646,3.206 3.206,4.066 -0.435,0.853 -2.539,0.45 -4.714,-0.897 -2.185,-1.352 -3.648,-3.166 -3.255,-4.051 0.398,-0.899 2.536,-0.505 4.763,0.882 m 41.563,16.96 c -2.461,-1.902 -3.324,-3.973 -1.889,-4.618 1.453,-0.652 4.685,0.414 7.183,2.374 2.474,1.942 3.243,3.992 1.755,4.588 -1.47,0.588 -4.608,-0.457 -7.049,-2.344 m 40.801,16.604 c 2.639,-0.097 6.598,1.695 8.784,3.977 2.154,2.248 1.727,4.081 -0.897,4.125 -2.592,0.041 -6.404,-1.682 -8.574,-3.877 -2.2,-2.226 -1.918,-4.128 0.687,-4.225 M 49.319,306.412 c -0.344,-0.131 -0.778,-0.426 -0.973,-0.66 -0.194,-0.236 -0.072,-0.319 0.273,-0.189 0.344,0.132 0.78,0.429 0.975,0.664 0.192,0.233 0.069,0.317 -0.275,0.185 m 142.238,13.152 c -2.038,0.274 -5.422,-1.177 -7.601,-3.258 -2.206,-2.106 -2.383,-4.091 -0.35,-4.416 2.058,-0.328 5.555,1.171 7.765,3.329 2.183,2.132 2.246,4.069 0.186,4.345 M 62.48,291.213 c 0.255,0.557 -0.331,0.624 -1.308,0.154 -0.98,-0.47 -1.986,-1.304 -2.252,-1.864 -0.266,-0.565 0.319,-0.639 1.307,-0.162 0.986,0.474 1.996,1.314 2.253,1.872 m 163.456,46.266 c 3.149,0.329 7.043,2.491 8.642,4.791 1.574,2.262 0.306,3.773 -2.781,3.412 -3.056,-0.358 -6.815,-2.426 -8.448,-4.657 -1.661,-2.267 -0.528,-3.869 2.587,-3.546 m -89.879,-41.13 c -2.207,-1.629 -3.296,-3.547 -2.411,-4.283 0.894,-0.743 3.454,0.014 5.695,1.686 2.224,1.659 3.255,3.571 2.326,4.272 -0.918,0.691 -3.421,-0.057 -5.61,-1.675 m -41.276,-8.628 c -0.086,0.768 -1.524,0.572 -3.218,-0.435 -1.7,-1.009 -3.033,-2.462 -2.974,-3.249 0.06,-0.795 1.511,-0.608 3.238,0.422 1.721,1.026 3.041,2.488 2.954,3.262 m 154.483,57.684 c 0.871,2.17 -1.226,3.271 -4.647,2.5 -3.395,-0.763 -6.905,-3.106 -7.875,-5.272 -0.99,-2.205 1.009,-3.411 4.506,-2.651 3.523,0.767 7.129,3.212 8.016,5.423 m -93.252,-54.424 c -1.453,0.456 -4.287,-0.683 -6.359,-2.556 -2.092,-1.892 -2.647,-3.838 -1.209,-4.338 1.455,-0.505 4.368,0.663 6.475,2.599 2.087,1.917 2.562,3.835 1.093,4.295 M 96.059,271.528 c -1.809,-1.277 -2.941,-2.897 -2.521,-3.618 0.425,-0.726 2.265,-0.26 4.098,1.045 1.823,1.297 2.927,2.917 2.478,3.617 -0.447,0.694 -2.257,0.227 -4.055,-1.044 m -65.351,9.526 c -0.416,-0.192 -0.889,-0.559 -1.055,-0.82 -0.166,-0.259 0.039,-0.315 0.458,-0.123 0.419,0.193 0.892,0.561 1.056,0.82 0.164,0.259 -0.041,0.314 -0.459,0.123 m 171.116,29.768 c 2.626,0.064 6.204,1.979 7.946,4.251 1.714,2.237 0.967,3.945 -1.623,3.843 -2.565,-0.101 -6.027,-1.942 -7.778,-4.142 -1.776,-2.232 -1.146,-4.015 1.455,-3.952 M 53.516,269.228 c -1.129,-0.642 -2.139,-1.635 -2.256,-2.22 -0.116,-0.587 0.713,-0.537 1.852,0.115 1.139,0.648 2.146,1.647 2.252,2.226 0.104,0.575 -0.723,0.52 -1.848,-0.121 m 222.025,123.263 c -0.066,0.18 -0.182,0.333 -0.332,0.469 -0.06,0.145 -0.13,0.289 -0.259,0.411 -0.146,0.138 -0.337,0.25 -0.555,0.343 -0.128,0.116 -0.269,0.227 -0.465,0.314 -0.213,0.094 -0.466,0.158 -0.738,0.207 -0.197,0.085 -0.41,0.162 -0.674,0.211 -0.304,0.056 -0.639,0.084 -0.998,0.086 -0.234,0.039 -0.472,0.075 -0.756,0.082 -0.333,0.008 -0.693,-0.013 -1.064,-0.049 -0.302,0.006 -0.617,0.003 -0.971,-0.03 -0.362,-0.035 -0.741,-0.094 -1.124,-0.166 -0.355,-0.034 -0.725,-0.079 -1.127,-0.155 -0.429,-0.079 -0.866,-0.185 -1.305,-0.305 -0.354,-0.07 -0.713,-0.142 -1.095,-0.246 -0.408,-0.109 -0.812,-0.24 -1.214,-0.378 -0.411,-0.111 -0.833,-0.234 -1.267,-0.384 -0.439,-0.152 -0.869,-0.321 -1.289,-0.499 -0.396,-0.139 -0.794,-0.283 -1.199,-0.453 -0.415,-0.175 -0.811,-0.363 -1.197,-0.556 -0.41,-0.171 -0.819,-0.353 -1.225,-0.556 -0.397,-0.198 -0.767,-0.407 -1.126,-0.616 -0.394,-0.198 -0.788,-0.404 -1.165,-0.626 -0.358,-0.211 -0.68,-0.425 -0.99,-0.64 -0.382,-0.222 -0.754,-0.454 -1.104,-0.697 -0.33,-0.23 -0.616,-0.458 -0.887,-0.686 -0.333,-0.229 -0.653,-0.465 -0.943,-0.708 -0.276,-0.231 -0.503,-0.456 -0.717,-0.677 -0.29,-0.242 -0.562,-0.487 -0.797,-0.734 -0.218,-0.228 -0.383,-0.445 -0.533,-0.657 -0.234,-0.243 -0.444,-0.486 -0.612,-0.727 -0.152,-0.216 -0.248,-0.418 -0.332,-0.614 -0.17,-0.239 -0.312,-0.475 -0.405,-0.705 -0.082,-0.195 -0.104,-0.371 -0.122,-0.543 -0.101,-0.23 -0.163,-0.454 -0.177,-0.665 -0.011,-0.179 0.034,-0.331 0.086,-0.479 -0.019,-0.205 0.002,-0.4 0.073,-0.578 0.062,-0.154 0.176,-0.278 0.299,-0.396 0.064,-0.174 0.167,-0.336 0.322,-0.476 0.14,-0.125 0.327,-0.22 0.527,-0.304 0.144,-0.134 0.318,-0.252 0.545,-0.346 0.196,-0.08 0.434,-0.127 0.674,-0.172 0.228,-0.103 0.502,-0.183 0.823,-0.235 0.282,-0.046 0.599,-0.058 0.924,-0.059 0.286,-0.048 0.598,-0.081 0.955,-0.081 0.338,-10e-4 0.702,0.032 1.071,0.073 0.348,-0.002 0.718,0.013 1.13,0.061 0.354,0.041 0.719,0.113 1.088,0.187 0.424,0.044 0.879,0.116 1.364,0.218 0.426,0.091 0.859,0.209 1.287,0.336 0.427,0.09 0.868,0.197 1.33,0.334 0.459,0.136 0.911,0.295 1.357,0.464 0.435,0.131 0.879,0.272 1.335,0.445 0.458,0.174 0.898,0.366 1.327,0.564 0.444,0.168 0.893,0.347 1.342,0.554 0.501,0.231 0.978,0.476 1.426,0.728 0.376,0.178 0.753,0.358 1.12,0.561 0.408,0.225 0.777,0.455 1.132,0.688 0.413,0.227 0.821,0.465 1.206,0.719 0.392,0.258 0.74,0.517 1.061,0.775 0.342,0.228 0.678,0.46 0.984,0.706 0.329,0.262 0.608,0.52 0.859,0.773 0.294,0.236 0.578,0.477 0.823,0.722 0.274,0.275 0.497,0.541 0.678,0.795 0.216,0.221 0.427,0.444 0.589,0.668 0.191,0.259 0.325,0.502 0.422,0.735 0.156,0.217 0.3,0.432 0.392,0.643 0.105,0.237 0.155,0.455 0.169,0.66 0.084,0.2 0.159,0.4 0.174,0.587 0.02,0.215 -0.013,0.408 -0.084,0.583 0.01,0.171 0.01,0.342 -0.046,0.496 M 108.837,257.796 c -1.822,-1.562 -2.608,-3.306 -1.738,-3.889 0.876,-0.591 3.091,0.23 4.93,1.822 1.824,1.583 2.564,3.311 1.67,3.869 -0.886,0.552 -3.055,-0.252 -4.862,-1.802 m -92.938,-4.759 c -0.5,-0.275 -1.003,-0.729 -1.122,-1.014 -0.119,-0.287 0.194,-0.295 0.698,-0.02 0.503,0.275 1.006,0.73 1.123,1.015 0.115,0.284 -0.196,0.293 -0.699,0.019 m 248.911,97.231 c 0.087,1.968 -2.764,2.593 -6.354,1.439 -3.576,-1.153 -6.632,-3.67 -6.847,-5.664 -0.217,-2.035 2.591,-2.762 6.294,-1.584 3.72,1.184 6.819,3.802 6.907,5.809 M 52.742,246.651 c -1.266,-0.855 -2.217,-2.019 -2.12,-2.602 0.096,-0.584 1.214,-0.357 2.492,0.512 1.275,0.866 2.216,2.033 2.106,2.605 -0.109,0.57 -1.217,0.34 -2.478,-0.515 m 117.404,37.157 c -1.8,-2.099 -1.656,-3.962 0.358,-4.14 2.031,-0.18 5.157,1.426 6.943,3.564 1.764,2.112 1.532,3.92 -0.489,4.062 -1.999,0.14 -5.034,-1.411 -6.812,-3.486 m 61.59,34.214 c 1.077,2.23 -0.525,3.591 -3.543,3.076 -2.993,-0.509 -6.323,-2.69 -7.476,-4.904 -1.169,-2.249 0.338,-3.704 3.406,-3.209 3.093,0.5 6.518,2.771 7.613,5.037 M 8.325,222.756 c 0.039,0.304 -0.409,0.238 -1,-0.144 -0.594,-0.385 -1.11,-0.944 -1.152,-1.251 -0.041,-0.307 0.408,-0.241 1.004,0.145 0.594,0.385 1.109,0.945 1.148,1.25 m 195.932,65.106 c -2.493,-0.242 -5.529,-2.183 -6.812,-4.364 -1.304,-2.212 -0.327,-3.851 2.213,-3.632 2.559,0.221 5.677,2.237 6.931,4.472 1.239,2.205 0.179,3.769 -2.332,3.524 m -67.255,-37.467 c -1.384,0.324 -3.839,-0.873 -5.503,-2.685 -1.683,-1.832 -1.943,-3.616 -0.559,-3.975 1.395,-0.361 3.907,0.869 5.588,2.732 1.667,1.846 1.869,3.597 0.474,3.928 m 142.664,129.852 c -0.995,-0.639 -1.731,-1.301 -2.249,-1.937 -1.127,-0.326 -2.287,-0.775 -3.392,-1.365 -1.107,-0.591 -2.005,-1.24 -2.709,-1.892 -1.086,-0.218 -2.248,-0.568 -3.421,-1.084 -1.175,-0.517 -2.2,-1.13 -3.062,-1.771 -0.999,-0.097 -2.118,-0.335 -3.313,-0.759 -1.195,-0.422 -2.301,-0.972 -3.283,-1.576 -0.872,0.026 -1.901,-0.089 -3.07,-0.403 -1.164,-0.312 -2.306,-0.778 -3.365,-1.32 -0.711,0.148 -1.61,0.159 -2.704,-0.033 -1.088,-0.191 -2.22,-0.556 -3.312,-1.018 -0.526,0.261 -1.262,0.394 -2.238,0.328 -0.972,-0.066 -2.048,-0.318 -3.13,-0.683 -0.325,0.36 -0.874,0.608 -1.702,0.667 -0.82,0.058 -1.8,-0.076 -2.829,-0.337 -0.123,0.444 -0.47,0.793 -1.123,0.971 -0.647,0.175 -1.499,0.157 -2.44,0.007 0.077,0.508 -0.068,0.942 -0.528,1.226 -0.456,0.281 -1.156,0.376 -1.98,0.336 0.266,0.553 0.32,1.053 0.06,1.43 -0.259,0.372 -0.791,0.569 -1.475,0.635 0.434,0.578 0.677,1.124 0.614,1.577 -0.061,0.447 -0.414,0.737 -0.942,0.9 0.581,0.583 0.995,1.158 1.124,1.668 0.128,0.506 -0.044,0.873 -0.408,1.124 0.702,0.57 1.268,1.156 1.575,1.706 0.306,0.547 0.311,0.977 0.116,1.303 0.799,0.545 1.492,1.122 1.963,1.697 0.467,0.568 0.643,1.047 0.614,1.435 0.87,0.504 1.667,1.061 2.281,1.64 0.611,0.577 0.947,1.089 1.079,1.528 0.914,0.452 1.79,0.97 2.527,1.542 0.733,0.569 1.215,1.1 1.501,1.575 0.933,0.39 1.863,0.86 2.7,1.408 0.836,0.545 1.449,1.083 1.876,1.581 0.929,0.321 1.888,0.734 2.803,1.244 0.913,0.51 1.641,1.039 2.198,1.547 0.902,0.244 1.866,0.59 2.835,1.052 0.97,0.462 1.792,0.969 2.464,1.473 0.853,0.165 1.8,0.435 2.799,0.84 1,0.402 1.898,0.875 2.669,1.363 0.783,0.08 1.689,0.271 2.695,0.604 1.008,0.334 1.958,0.76 2.81,1.222 0.694,-0.007 1.536,0.097 2.523,0.352 0.99,0.256 1.971,0.623 2.885,1.045 0.586,-0.094 1.341,-0.079 2.284,0.089 0.949,0.17 1.936,0.469 2.891,0.839 0.458,-0.179 1.106,-0.258 1.979,-0.182 0.878,0.076 1.849,0.297 2.818,0.603 0.316,-0.264 0.836,-0.435 1.613,-0.457 0.784,-0.022 1.709,0.112 2.67,0.343 0.158,-0.343 0.531,-0.606 1.189,-0.728 0.663,-0.124 1.514,-0.085 2.438,0.059 -0.01,-0.414 0.198,-0.763 0.71,-0.986 0.518,-0.225 1.266,-0.288 2.126,-0.237 -0.187,-0.478 -0.158,-0.908 0.187,-1.23 0.35,-0.325 0.97,-0.492 1.732,-0.542 -0.365,-0.527 -0.525,-1.026 -0.365,-1.441 0.16,-0.419 0.622,-0.69 1.26,-0.845 -0.542,-0.561 -0.896,-1.118 -0.935,-1.615 -0.041,-0.503 0.241,-0.875 0.724,-1.136 -0.71,-0.577 -1.253,-1.171 -1.503,-1.74 -0.25,-0.573 -0.166,-1.038 0.139,-1.401 -0.859,-0.57 -1.582,-1.183 -2.039,-1.803 -0.462,-0.626 -0.589,-1.171 -0.481,-1.627 -0.982,-0.543 -1.865,-1.151 -2.522,-1.801 -0.661,-0.655 -1.002,-1.262 -1.104,-1.798 -1.073,-0.492 -2.086,-1.071 -2.923,-1.728 -0.843,-0.66 -1.389,-1.305 -1.704,-1.904 -1.122,-0.418 -2.231,-0.944 -3.22,-1.58 m 3.482,-4.9 c 1.584,0.45 3.216,1.151 4.623,2.069 1.398,0.912 2.292,1.856 2.705,2.702 1.566,0.583 3.081,1.376 4.255,2.319 1.168,0.936 1.764,1.833 1.871,2.585 1.485,0.684 2.825,1.534 3.726,2.461 0.893,0.918 1.179,1.732 0.986,2.368 1.345,0.747 2.462,1.614 3.068,2.49 0.597,0.865 0.576,1.569 0.105,2.065 1.161,0.782 2.023,1.631 2.321,2.422 0.296,0.782 -0.016,1.354 -0.729,1.704 0.942,0.781 1.533,1.58 1.536,2.262 0.003,0.675 -0.571,1.104 -1.489,1.306 0.705,0.751 1.02,1.475 0.742,2.033 -0.27,0.552 -1.071,0.834 -2.151,0.889 0.46,0.698 0.507,1.324 -0.021,1.747 -0.522,0.418 -1.506,0.556 -2.705,0.473 0.217,0.625 0.012,1.144 -0.735,1.426 -0.736,0.28 -1.868,0.277 -3.143,0.068 -0.018,0.537 -0.454,0.936 -1.384,1.08 -0.92,0.144 -2.156,0.009 -3.468,-0.312 -0.239,0.438 -0.881,0.715 -1.959,0.725 -1.067,0.009 -2.371,-0.246 -3.683,-0.662 -0.442,0.332 -1.263,0.484 -2.453,0.365 -1.182,-0.119 -2.519,-0.481 -3.798,-0.978 -0.625,0.22 -1.595,0.249 -2.865,0.012 -1.263,-0.236 -2.598,-0.693 -3.819,-1.256 -0.786,0.107 -1.876,0.016 -3.193,-0.332 -1.312,-0.345 -2.617,-0.882 -3.752,-1.495 -0.924,-0.005 -2.107,-0.212 -3.442,-0.658 -1.33,-0.445 -2.575,-1.048 -3.602,-1.694 -1.037,-0.116 -2.287,-0.432 -3.609,-0.966 -1.321,-0.535 -2.481,-1.191 -3.377,-1.854 -1.13,-0.225 -2.418,-0.644 -3.699,-1.253 -1.282,-0.61 -2.333,-1.304 -3.079,-1.973 -1.196,-0.328 -2.492,-0.839 -3.704,-1.512 -1.218,-0.674 -2.136,-1.39 -2.715,-2.046 -1.234,-0.428 -2.512,-1.024 -3.629,-1.745 -1.121,-0.724 -1.883,-1.448 -2.28,-2.074 -1.246,-0.521 -2.474,-1.191 -3.466,-1.945 -0.998,-0.759 -1.579,-1.469 -1.78,-2.052 -1.23,-0.606 -2.378,-1.337 -3.218,-2.108 -0.847,-0.778 -1.228,-1.458 -1.22,-1.98 -1.181,-0.678 -2.216,-1.453 -2.877,-2.223 -0.666,-0.778 -0.829,-1.409 -0.6,-1.852 -1.098,-0.74 -1.988,-1.541 -2.441,-2.289 -0.457,-0.756 -0.385,-1.316 0.067,-1.664 -0.979,-0.784 -1.69,-1.593 -1.91,-2.295 -0.222,-0.71 0.096,-1.181 0.774,-1.414 -0.824,-0.809 -1.322,-1.601 -1.288,-2.234 0.035,-0.641 0.607,-0.999 1.498,-1.103 -0.63,-0.809 -0.885,-1.558 -0.579,-2.097 0.309,-0.545 1.131,-0.771 2.224,-0.732 -0.403,-0.786 -0.39,-1.464 0.194,-1.884 0.593,-0.423 1.652,-0.498 2.917,-0.308 -0.144,-0.729 0.156,-1.31 1.017,-1.585 0.872,-0.277 2.145,-0.187 3.545,0.157 0.135,-0.644 0.729,-1.098 1.851,-1.209 1.134,-0.112 2.582,0.148 4.069,0.647 0.427,-0.531 1.308,-0.835 2.66,-0.766 1.365,0.07 2.936,0.5 4.45,1.139 0.717,-0.392 1.864,-0.523 3.399,-0.27 1.546,0.254 3.176,0.847 4.655,1.606 0.986,-0.23 2.358,-0.178 4.016,0.256 1.666,0.435 3.284,1.167 4.659,2.019 1.221,-0.055 2.764,0.183 4.473,0.784 1.713,0.601 3.247,1.445 4.453,2.353 1.405,0.124 3.052,0.538 4.735,1.279 1.683,0.742 3.06,1.661 4.04,2.588 1.529,0.297 3.205,0.867 4.785,1.717 1.574,0.847 2.733,1.796 3.443,2.704 M 61.618,224.943 c -1.358,-1.109 -2.149,-2.439 -1.761,-2.976 0.392,-0.54 1.825,-0.063 3.195,1.061 1.363,1.12 2.134,2.45 1.731,2.971 -0.401,0.52 -1.815,0.047 -3.165,-1.056 m 211.007,131.995 c -3.573,-1.489 -5.998,-4.064 -5.41,-5.784 0.599,-1.757 4.096,-1.956 7.801,-0.415 3.708,1.543 6.107,4.199 5.372,5.901 -0.72,1.667 -4.191,1.788 -7.763,0.298 m -21.864,-30.691 c -3.266,-0.923 -6.229,-3.344 -6.641,-5.446 -0.418,-2.14 1.958,-3.15 5.326,-2.215 3.387,0.938 6.401,3.455 6.713,5.583 0.308,2.09 -2.117,3.003 -5.398,2.078 m 23.763,7.968 c -3.334,-1.292 -5.701,-3.823 -5.29,-5.685 0.422,-1.895 3.558,-2.38 7.007,-1.048 3.453,1.336 5.813,3.949 5.276,5.806 -0.526,1.822 -3.656,2.223 -6.993,0.927 m 20.619,29.965 c -1.49,1.291 -5.399,0.909 -8.766,-0.835 -3.379,-1.749 -5.028,-4.254 -3.654,-5.616 1.401,-1.39 5.399,-1.056 8.892,0.765 3.485,1.814 5.047,4.368 3.528,5.686 m -58.376,-70.875 c -2.853,-0.659 -5.634,-2.911 -6.234,-5.064 -0.608,-2.187 1.256,-3.453 4.184,-2.795 2.945,0.661 5.777,2.997 6.31,5.184 0.521,2.154 -1.393,3.336 -4.26,2.675 M 8.608,190.713 c -0.68,-0.529 -1.169,-1.211 -1.093,-1.524 0.076,-0.314 0.693,-0.136 1.377,0.397 0.68,0.529 1.166,1.212 1.086,1.521 -0.079,0.31 -0.691,0.134 -1.37,-0.394 m 162.11,56.068 c -1.886,0.01 -4.467,-1.596 -5.787,-3.609 -1.334,-2.037 -0.888,-3.731 1.023,-3.766 1.922,-0.036 4.564,1.623 5.877,3.683 1.296,2.038 0.788,3.682 -1.113,3.692 M 87.136,207.999 c -0.772,0.401 -2.477,-0.384 -3.822,-1.758 -1.353,-1.382 -1.837,-2.847 -1.07,-3.267 0.77,-0.423 2.504,0.375 3.863,1.777 1.349,1.393 1.804,2.844 1.029,3.248 m 37.838,-11.808 c -1.198,0.197 -3.109,-0.957 -4.281,-2.584 -1.182,-1.641 -1.175,-3.152 0.028,-3.366 1.209,-0.212 3.153,0.967 4.329,2.624 1.165,1.646 1.124,3.129 -0.076,3.326 m 181.11,148.631 c -1.341,1.449 -4.976,1.324 -8.148,-0.259 -3.178,-1.585 -4.771,-4.072 -3.533,-5.579 1.261,-1.535 4.964,-1.465 8.248,0.18 3.274,1.64 4.798,4.184 3.433,5.658 M 24.752,159.499 c -0.733,-0.706 -1.127,-1.518 -0.877,-1.807 0.251,-0.291 1.053,0.051 1.791,0.765 0.734,0.707 1.122,1.517 0.867,1.802 -0.251,0.285 -1.049,-0.055 -1.781,-0.76 m 247.635,144.215 c -3.004,-1.057 -5.26,-3.483 -5.04,-5.451 0.223,-2 2.912,-2.772 6.01,-1.689 3.102,1.083 5.361,3.59 5.045,5.565 -0.311,1.943 -3.004,2.634 -6.015,1.575 m -55.353,-56.385 c 0.696,2.096 -0.631,3.469 -2.951,3.095 -2.309,-0.374 -4.77,-2.348 -5.516,-4.434 -0.754,-2.114 0.53,-3.554 2.886,-3.19 2.367,0.367 4.874,2.405 5.581,4.529 m 80.245,118.082 c 2.126,-0.963 6.399,-0.133 9.492,1.86 3.07,1.979 3.726,4.303 1.52,5.187 -2.164,0.87 -6.303,0.029 -9.292,-1.874 -3.014,-1.915 -3.806,-4.229 -1.72,-5.173 M 264.324,262.242 c -2.547,-0.775 -4.589,-2.993 -4.571,-4.98 0.02,-2.016 2.146,-3.035 4.754,-2.248 2.618,0.787 4.675,3.072 4.59,5.077 -0.084,1.976 -2.222,2.927 -4.773,2.151 m 55.364,114.314 c 2.511,2.028 2.268,4.021 -0.485,4.462 -2.702,0.432 -6.852,-0.798 -9.335,-2.757 -2.504,-1.978 -2.419,-3.995 0.251,-4.498 2.722,-0.511 7.033,0.744 9.569,2.793 M 179.206,194.103 c -1.607,-0.1 -3.531,-1.626 -4.31,-3.424 -0.784,-1.817 -0.109,-3.226 1.52,-3.135 1.637,0.089 3.59,1.654 4.354,3.482 0.755,1.807 0.05,3.18 -1.564,3.077 m 136.425,124.052 c -1.156,1.589 -4.433,1.741 -7.335,0.362 -2.906,-1.38 -4.408,-3.805 -3.338,-5.439 1.089,-1.662 4.415,-1.873 7.408,-0.448 2.991,1.425 4.445,3.909 3.265,5.525 m 12.561,39.806 c -2.05,1.009 -5.947,0.394 -8.751,-1.363 -2.814,-1.766 -3.527,-4.063 -1.547,-5.138 2.013,-1.093 6.026,-0.501 8.916,1.332 2.871,1.826 3.469,4.143 1.382,5.169 M 61.714,133 c -0.71,-0.906 -0.899,-1.819 -0.416,-2.037 0.485,-0.217 1.456,0.349 2.169,1.262 0.707,0.909 0.887,1.819 0.403,2.029 -0.484,0.211 -1.447,-0.349 -2.156,-1.254 m 261.282,147.86 c -0.931,1.673 -3.714,2.104 -6.234,0.982 -2.522,-1.12 -3.873,-3.392 -3.011,-5.095 0.875,-1.729 3.692,-2.215 6.278,-1.065 2.587,1.151 3.909,3.478 2.967,5.178 M 126.906,119.253 c -0.747,0.068 -1.792,-0.75 -2.34,-1.836 -0.55,-1.089 -0.39,-2.034 0.359,-2.109 0.754,-0.073 1.809,0.757 2.354,1.851 0.544,1.09 0.375,2.025 -0.373,2.094 m 200.558,270.156 c -3.082,0.014 -7.054,-1.513 -8.933,-3.431 -1.901,-1.942 -0.981,-3.587 2.117,-3.654 3.147,-0.068 7.275,1.511 9.161,3.508 1.86,1.971 0.781,3.563 -2.345,3.577 M 247.243,204.693 c -1.894,-0.454 -3.554,-2.274 -3.709,-4.083 -0.156,-1.828 1.275,-2.954 3.207,-2.501 1.936,0.456 3.606,2.323 3.728,4.148 0.121,1.806 -1.326,2.889 -3.226,2.436 m 99.912,162.668 c 2.304,1.876 1.99,3.844 -0.649,4.405 -2.596,0.55 -6.498,-0.47 -8.777,-2.283 -2.291,-1.828 -2.114,-3.809 0.453,-4.422 2.608,-0.623 6.651,0.41 8.973,2.3 m 2.354,-30.054 c -1.9,1.14 -5.483,0.777 -8.038,-0.8 -2.565,-1.584 -3.182,-3.829 -1.346,-5.025 1.868,-1.214 5.544,-0.88 8.171,0.758 2.618,1.634 3.145,3.906 1.213,5.067 m 23.352,-29.744 c -1.684,1.238 -4.829,1.144 -7.048,-0.198 -2.227,-1.346 -2.724,-3.464 -1.09,-4.741 1.659,-1.296 4.869,-1.235 7.141,0.152 2.27,1.383 2.703,3.532 0.997,4.787 m -12.678,77.766 c -2.948,0.117 -6.635,-1.199 -8.293,-2.955 -1.674,-1.777 -0.675,-3.362 2.283,-3.527 3.002,-0.168 6.824,1.186 8.484,3.01 1.642,1.805 0.511,3.352 -2.474,3.472 m 17.221,-27.478 c -2.447,0.665 -6.042,-0.123 -8.072,-1.763 -2.042,-1.648 -1.769,-3.564 0.654,-4.281 2.46,-0.725 6.164,0.065 8.234,1.766 2.056,1.689 1.67,3.606 -0.816,4.278 m -48.925,32.804 c 3.396,0.336 7.154,2.13 8.345,3.979 1.176,1.824 -0.618,2.984 -3.954,2.617 -3.295,-0.362 -6.923,-2.089 -8.157,-3.882 -1.249,-1.819 0.413,-3.046 3.766,-2.714 M 215.822,122.416 c -0.974,-0.137 -1.927,-1.202 -2.134,-2.376 -0.207,-1.186 0.417,-2.037 1.401,-1.9 0.983,0.138 1.944,1.215 2.141,2.402 0.199,1.177 -0.434,2.016 -1.408,1.874 m 106.267,106.36 c -1.951,-0.787 -3.045,-2.724 -2.446,-4.338 0.609,-1.634 2.718,-2.323 4.708,-1.518 1.992,0.803 3.075,2.777 2.428,4.399 -0.642,1.603 -2.737,2.246 -4.69,1.457 m 75.658,149.298 c -2.766,0.218 -6.118,-0.87 -7.532,-2.443 -1.424,-1.585 -0.362,-3.087 2.413,-3.345 2.812,-0.262 6.271,0.852 7.685,2.478 1.402,1.611 0.233,3.089 -2.566,3.31 m 15.905,-40.969 c -2.221,0.755 -5.391,0.22 -7.114,-1.192 -1.728,-1.418 -1.37,-3.208 0.832,-4.002 2.235,-0.804 5.488,-0.274 7.237,1.182 1.741,1.452 1.298,3.249 -0.955,4.012 m -19.937,-73.149 c -1.735,-1.019 -2.085,-2.848 -0.763,-4.095 1.331,-1.261 3.857,-1.445 5.621,-0.403 1.76,1.041 2.067,2.896 0.705,4.133 -1.35,1.225 -3.832,1.385 -5.563,0.365 M 340.685,402.6 c 0.501,1.608 -1.869,2.332 -5.256,1.644 -3.356,-0.681 -6.523,-2.511 -7.111,-4.113 -0.593,-1.626 1.684,-2.423 5.128,-1.746 3.474,0.679 6.731,2.579 7.239,4.215 m 20.806,-8.068 c -1.025,-1.631 0.662,-2.782 3.812,-2.554 3.187,0.232 6.596,1.781 7.574,3.44 0.965,1.639 -0.831,2.739 -3.969,2.479 -3.101,-0.255 -6.403,-1.754 -7.417,-3.365 M 321.887,148.578 c -1.066,-0.366 -1.706,-1.563 -1.427,-2.682 0.279,-1.121 1.382,-1.733 2.459,-1.362 1.076,0.371 1.715,1.584 1.422,2.704 -0.289,1.113 -1.39,1.71 -2.454,1.34 m 136.38,157.13 c -1.842,0.771 -4.378,0.506 -5.678,-0.589 -1.31,-1.098 -0.902,-2.63 0.927,-3.424 1.847,-0.802 4.433,-0.546 5.752,0.576 1.316,1.12 0.855,2.659 -1.001,3.437 m -80.359,101.709 c 0.326,1.41 -1.958,2.081 -5.077,1.517 -3.092,-0.558 -5.897,-2.129 -6.295,-3.532 -0.4,-1.42 1.813,-2.143 4.974,-1.592 3.189,0.554 6.064,2.178 6.398,3.607 m 49.623,-211.295 c -0.965,-0.544 -1.122,-1.705 -0.349,-2.595 0.771,-0.896 2.192,-1.18 3.164,-0.63 0.973,0.551 1.122,1.72 0.336,2.609 -0.783,0.887 -2.191,1.16 -3.151,0.616 m 14.93,170.175 c -2.496,0.303 -5.413,-0.532 -6.546,-1.874 -1.141,-1.349 -0.055,-2.72 2.45,-3.054 2.532,-0.339 5.53,0.51 6.662,1.891 1.124,1.374 -0.039,2.729 -2.566,3.037 m -28.447,27.995 c 0.751,1.434 -1.013,2.457 -3.907,2.301 -2.859,-0.154 -5.793,-1.41 -6.583,-2.821 -0.797,-1.423 0.881,-2.484 3.781,-2.354 2.931,0.132 5.948,1.425 6.709,2.874 m -78.711,15.892 c -3.284,-0.936 -5.913,-2.78 -5.885,-4.145 0.025,-1.386 2.776,-1.762 6.161,-0.813 3.405,0.956 6.074,2.864 5.947,4.237 -0.124,1.351 -2.917,1.664 -6.223,0.721 m 123.479,-17.52 c -2.53,-0.058 -5.017,-1.051 -5.574,-2.226 -0.562,-1.185 1.036,-2.119 3.595,-2.079 2.583,0.039 5.131,1.055 5.665,2.258 0.53,1.194 -1.13,2.105 -3.686,2.047 m -130.598,18.278 c 0.591,-1.119 3.672,-1.103 6.879,0.05 3.216,1.158 5.259,2.994 4.569,4.083 -0.68,1.071 -3.757,1.008 -6.873,-0.121 -3.108,-1.126 -5.156,-2.914 -4.575,-4.012 m 170.041,-63.26 c -2.055,0.347 -4.349,-0.204 -5.148,-1.237 -0.799,-1.035 0.208,-2.174 2.27,-2.54 2.077,-0.371 4.421,0.187 5.216,1.241 0.79,1.05 -0.261,2.184 -2.338,2.536 M 516.998,256.3 c -1.108,0.57 -2.578,0.539 -3.273,-0.072 -0.704,-0.609 -0.376,-1.57 0.732,-2.147 1.121,-0.583 2.599,-0.557 3.306,0.062 0.701,0.616 0.359,1.582 -0.765,2.157 M 414.997,412.525 c -2.784,-0.437 -5.2,-1.745 -5.423,-2.938 -0.223,-1.204 1.875,-1.847 4.713,-1.418 2.859,0.432 5.332,1.778 5.501,2.991 0.17,1.202 -1.985,1.805 -4.791,1.365 m -42.587,5.601 c -2.952,-0.781 -5.208,-2.337 -5.052,-3.496 0.159,-1.173 2.731,-1.5 5.761,-0.711 3.047,0.795 5.334,2.399 5.1,3.564 -0.234,1.151 -2.84,1.43 -5.809,0.643 m 36.856,4.473 c 0.257,-0.963 2.601,-1.24 5.244,-0.605 2.654,0.638 4.559,1.944 4.243,2.902 -0.313,0.949 -2.682,1.192 -5.28,0.558 -2.583,-0.63 -4.464,-1.903 -4.207,-2.855 m 109.411,-37.624 c -2.027,0.022 -3.922,-0.669 -4.248,-1.547 -0.324,-0.883 1.055,-1.627 3.099,-1.661 2.06,-0.031 3.989,0.671 4.301,1.564 0.306,0.89 -1.109,1.624 -3.152,1.644 m -190.553,33.533 c -2.853,-1.254 -4.311,-2.927 -3.245,-3.749 1.086,-0.834 4.36,-0.472 7.297,0.819 2.935,1.291 4.353,2.993 3.182,3.791 -1.151,0.784 -4.381,0.393 -7.234,-0.861 M 572.242,317.886 c -1.234,0.276 -2.533,0.037 -2.92,-0.532 -0.384,-0.57 0.301,-1.258 1.529,-1.538 1.237,-0.281 2.56,-0.044 2.936,0.533 0.386,0.573 -0.307,1.261 -1.545,1.537 M 370.7,422.103 c 2.802,0.955 4.499,2.466 3.789,3.36 -0.699,0.881 -3.478,0.827 -6.209,-0.109 -2.721,-0.933 -4.423,-2.409 -3.794,-3.31 0.636,-0.912 3.416,-0.894 6.214,0.059 m 93.21,-7.32 c -2.39,-0.318 -4.374,-1.345 -4.439,-2.306 -0.069,-0.97 1.834,-1.513 4.26,-1.204 2.447,0.311 4.464,1.364 4.496,2.341 0.03,0.968 -1.911,1.487 -4.317,1.169 m -54.698,17.968 c 2.377,0.764 3.738,1.965 3.045,2.675 -0.685,0.703 -3.123,0.656 -5.449,-0.095 -2.315,-0.749 -3.68,-1.928 -3.044,-2.641 0.641,-0.723 3.081,-0.699 5.448,0.061 m 113.392,-17.44 c -1.847,-0.197 -3.297,-0.913 -3.245,-1.603 0.05,-0.696 1.598,-1.107 3.465,-0.916 1.878,0.194 3.348,0.921 3.278,1.62 -0.073,0.696 -1.64,1.095 -3.498,0.899 m -193.506,7.035 c -1.541,0.505 -4.82,-0.163 -7.353,-1.488 -2.542,-1.327 -3.425,-2.842 -1.948,-3.385 1.501,-0.554 4.849,0.105 7.454,1.473 2.598,1.364 3.41,2.888 1.847,3.4 m 267.24,-50.838 c -1.165,0.055 -2.2,-0.278 -2.309,-0.744 -0.109,-0.469 0.755,-0.896 1.924,-0.954 1.185,-0.058 2.226,0.278 2.328,0.749 0.105,0.47 -0.764,0.895 -1.943,0.949 m -237.804,56.107 c 1.027,-0.657 3.89,-0.347 6.387,0.701 2.501,1.048 3.632,2.416 2.545,3.048 -1.071,0.623 -3.905,0.292 -6.344,-0.731 -2.435,-1.023 -3.599,-2.37 -2.588,-3.018 m 102.712,1.874 c 2.196,0.485 3.694,1.486 3.337,2.23 -0.353,0.737 -2.396,0.938 -4.559,0.457 -2.149,-0.479 -3.63,-1.46 -3.316,-2.199 0.32,-0.745 2.348,-0.967 4.538,-0.488"
                  style="fill:url(#linearGradient2167);stroke:none" id="path2169" inkscape:connector-curvature="0" />
              </g>
            </g>
          </g>
        </g>
      </g>
    </g>
  </g>
</svg>