<svg xmlns="http://www.w3.org/2000/svg"
     xmlns:xlink="http://www.w3.org/1999/xlink"
     zoomAndPan="magnify"
     preserveAspectRatio="xMidYMid meet"
     version="1.0"
     viewBox="132.2 107.36 113.51 158.99">
    <defs>
        <g />
        <clipPath id="232928f547">
            <path d="M 224.589844 107.363281 L 245.707031 107.363281 L 245.707031 128.480469 L 224.589844 128.480469 Z M 224.589844 107.363281 "
                  clip-rule="nonzero" />
        </clipPath>
        <clipPath id="87739b47ce">
            <path d="M 235.148438 107.363281 C 229.316406 107.363281 224.589844 112.089844 224.589844 117.921875 C 224.589844 123.753906 229.316406 128.480469 235.148438 128.480469 C 240.980469 128.480469 245.707031 123.753906 245.707031 117.921875 C 245.707031 112.089844 240.980469 107.363281 235.148438 107.363281 Z M 235.148438 107.363281 "
                  clip-rule="nonzero" />
        </clipPath>
        <clipPath id="876fe29d71">
            <path d="M 158.960938 124.566406 L 235.148438 124.566406 L 235.148438 200.753906 L 158.960938 200.753906 Z M 158.960938 124.566406 "
                  clip-rule="nonzero" />
        </clipPath>
        <clipPath id="a9596b9871">
            <path d="M 197.054688 124.566406 C 176.015625 124.566406 158.960938 141.621094 158.960938 162.660156 C 158.960938 183.699219 176.015625 200.753906 197.054688 200.753906 C 218.09375 200.753906 235.148438 183.699219 235.148438 162.660156 C 235.148438 141.621094 218.09375 124.566406 197.054688 124.566406 Z M 197.054688 124.566406 "
                  clip-rule="nonzero" />
        </clipPath>
        <clipPath id="9e85d9da65">
            <path d="M 173.832031 139.4375 L 220.277344 139.4375 L 220.277344 185.882812 L 173.832031 185.882812 Z M 173.832031 139.4375 "
                  clip-rule="nonzero" />
        </clipPath>
        <clipPath id="f3c7a40772">
            <path d="M 197.054688 139.4375 C 184.230469 139.4375 173.832031 149.835938 173.832031 162.660156 C 173.832031 175.484375 184.230469 185.882812 197.054688 185.882812 C 209.878906 185.882812 220.277344 175.484375 220.277344 162.660156 C 220.277344 149.835938 209.878906 139.4375 197.054688 139.4375 Z M 197.054688 139.4375 "
                  clip-rule="nonzero" />
        </clipPath>
        <clipPath id="66f0b1a498">
            <path d="M 171.410156 215.511719 L 243.640625 215.511719 L 243.640625 263.328125 L 171.410156 263.328125 Z M 171.410156 215.511719 "
                  clip-rule="nonzero" />
        </clipPath>
        <clipPath id="6e1940b14b">
            <path d="M 158.960938 215.265625 L 187.957031 215.265625 L 187.957031 229.507812 L 158.960938 229.507812 Z M 158.960938 215.265625 "
                  clip-rule="nonzero" />
        </clipPath>
        <clipPath id="5f9801d56e">
            <path d="M 144 124 L 197 124 L 197 185 L 144 185 Z M 144 124 "
                  clip-rule="nonzero" />
        </clipPath>
        <clipPath id="82368b57d5">
            <path d="M 144.199219 184.484375 L 147.300781 124.539062 L 197.085938 127.117188 L 193.984375 187.058594 Z M 144.199219 184.484375 "
                  clip-rule="nonzero" />
        </clipPath>
        <clipPath id="5c5cdbc730">
            <path d="M 151.6875 184.871094 L 186.46875 186.671875 C 188.453125 186.773438 190.398438 186.082031 191.878906 184.75 C 193.355469 183.417969 194.242188 181.554688 194.34375 179.570312 L 196.671875 134.628906 C 196.773438 132.640625 196.082031 130.695312 194.75 129.21875 C 193.417969 127.742188 191.554688 126.855469 189.570312 126.75 L 154.789062 124.953125 C 152.804688 124.847656 150.859375 125.539062 149.378906 126.871094 C 147.902344 128.203125 147.015625 130.066406 146.914062 132.054688 L 144.585938 176.992188 C 144.484375 178.980469 145.175781 180.925781 146.507812 182.402344 C 147.839844 183.878906 149.703125 184.769531 151.6875 184.871094 Z M 151.6875 184.871094 "
                  clip-rule="nonzero" />
        </clipPath>
        <clipPath id="385023c9a0">
            <path d="M 144.199219 184.484375 L 147.300781 124.539062 L 197.085938 127.117188 L 193.984375 187.058594 Z M 144.199219 184.484375 "
                  clip-rule="nonzero" />
        </clipPath>
        <clipPath id="ee70b24f4d">
            <path d="M 144.199219 184.484375 L 147.300781 124.539062 L 197.085938 127.117188 L 193.984375 187.058594 Z M 144.199219 184.484375 "
                  clip-rule="nonzero" />
        </clipPath>
        <clipPath id="59b20b795b">
            <path d="M 144.199219 184.484375 L 147.617188 118.445312 L 213.65625 121.863281 L 210.238281 187.902344 Z M 144.199219 184.484375 "
                  clip-rule="nonzero" />
        </clipPath>
    </defs>
    <g clip-path="url(#232928f547)">
        <g clip-path="url(#87739b47ce)">
            <path fill="#F4EAF3"
                  d="M 224.589844 107.363281 L 245.707031 107.363281 L 245.707031 128.480469 L 224.589844 128.480469 Z M 224.589844 107.363281 "
                  fill-opacity="1"
                  fill-rule="nonzero" />
        </g>
    </g>
    <g clip-path="url(#876fe29d71)">
        <g clip-path="url(#a9596b9871)">
            <path fill="#F4EAF3"
                  d="M 158.960938 124.566406 L 235.148438 124.566406 L 235.148438 200.753906 L 158.960938 200.753906 Z M 158.960938 124.566406 "
                  fill-opacity="1"
                  fill-rule="nonzero" />
        </g>
    </g>
    <g clip-path="url(#9e85d9da65)">
        <g clip-path="url(#f3c7a40772)">
            <path fill="current"
                  d="M 173.832031 139.4375 L 220.277344 139.4375 L 220.277344 185.882812 L 173.832031 185.882812 Z M 173.832031 139.4375 "
                  fill-opacity="1"
                  fill-rule="nonzero" />
        </g>
    </g>
    <g clip-path="url(#66f0b1a498)">
        <path fill="#F4EAF3"
              d="M 171.4375 217.105469 L 171.4375 228.261719 C 171.4375 229.144531 172.15625 229.855469 173.039062 229.855469 L 220.824219 229.855469 C 226.027344 229.855469 230.570312 233.820312 230.773438 238.988281 C 230.988281 244.464844 226.621094 248.984375 221.160156 248.984375 C 220.273438 248.984375 219.554688 249.695312 219.554688 250.578125 L 219.554688 261.734375 C 219.554688 262.625 220.296875 263.328125 221.191406 263.328125 C 233.558594 263.308594 243.617188 252.589844 243.617188 239.421875 C 243.617188 226.238281 233.542969 215.511719 221.160156 215.511719 L 173.039062 215.511719 C 172.15625 215.511719 171.4375 216.226562 171.4375 217.105469 Z M 171.4375 217.105469 "
              fill-opacity="1"
              fill-rule="nonzero" />
    </g>
    <g clip-path="url(#6e1940b14b)">
        <path fill="#F4EAF3"
              d="M 187.898438 215.265625 C 187.898438 223.257812 181.417969 229.738281 173.421875 229.738281 C 165.429688 229.738281 158.972656 223.257812 158.972656 215.265625 Z M 187.898438 215.265625 "
              fill-opacity="1"
              fill-rule="nonzero" />
    </g>
    <path stroke-linecap="round"
          transform="matrix(0, -0.508673, 0.508673, 0, 138.091035, 192.682648)"
          fill="none"
          stroke-linejoin="miter"
          d="M 12.000878 12.000396 L 121.906941 12.000396 "
          stroke="#F4EAF3"
          stroke-width="24"
          stroke-opacity="1"
          stroke-miterlimit="4" />
    <g clip-path="url(#5f9801d56e)">
        <g clip-path="url(#82368b57d5)">
            <g clip-path="url(#5c5cdbc730)">
                <g clip-path="url(#385023c9a0)">
                    <g clip-path="url(#ee70b24f4d)">
                        <g clip-path="url(#59b20b795b)">
                            <path fill="#F4EAF3"
                                  d="M 213.484375 125.148438 C 213.390625 126.964844 211.84375 128.359375 210.027344 128.265625 C 179.054688 126.664062 152.546875 150.5625 150.945312 181.535156 C 150.851562 183.351562 149.300781 184.746094 147.488281 184.652344 C 145.671875 184.558594 144.273438 183.011719 144.371094 181.195312 C 144.808594 172.726562 146.890625 164.59375 150.566406 157.023438 C 154.113281 149.714844 158.984375 143.242188 165.042969 137.777344 C 171.101562 132.316406 178.046875 128.140625 185.679688 125.367188 C 193.589844 122.492188 201.894531 121.261719 210.363281 121.699219 C 212.183594 121.785156 213.578125 123.335938 213.484375 125.148438 Z M 213.484375 125.148438 "
                                  fill-opacity="1"
                                  fill-rule="nonzero" />
                        </g>
                    </g>
                </g>
            </g>
        </g>
    </g>
    <g fill="#F4EAF3"
       fill-opacity="1">
        <g transform="translate(144.757367, 261.895305)">
            <g>
                <path
                      d="M 8.078125 -11.46875 C 8.398438 -11.46875 8.6875 -11.425781 8.9375 -11.34375 C 9.195312 -11.269531 9.328125 -11.222656 9.328125 -11.203125 L 9.328125 -7.671875 L 7.96875 -7.671875 C 7.09375 -7.671875 6.457031 -7.441406 6.0625 -6.984375 C 5.675781 -6.535156 5.484375 -5.867188 5.484375 -4.984375 L 5.484375 0 L 1.265625 0 L 1.265625 -11.1875 L 4.71875 -11.1875 L 5 -9.484375 C 5.25 -10.140625 5.648438 -10.632812 6.203125 -10.96875 C 6.753906 -11.300781 7.378906 -11.46875 8.078125 -11.46875 Z M 8.078125 -11.46875 " />
            </g>
        </g>
    </g>
    <g fill="#F4EAF3"
       fill-opacity="1">
        <g transform="translate(154.164185, 261.895305)">
            <g>
                <path
                      d="M 13.859375 -13.28125 C 13.859375 -12.414062 13.640625 -11.75 13.203125 -11.28125 C 12.773438 -10.820312 12.128906 -10.476562 11.265625 -10.25 C 11.679688 -9.9375 12.003906 -9.570312 12.234375 -9.15625 C 12.460938 -8.738281 12.578125 -8.300781 12.578125 -7.84375 C 12.578125 -6.65625 12.128906 -5.753906 11.234375 -5.140625 C 10.335938 -4.535156 9.21875 -4.234375 7.875 -4.234375 L 6.265625 -4.234375 C 5.378906 -4.234375 4.9375 -4.03125 4.9375 -3.625 C 4.9375 -3.425781 5.035156 -3.265625 5.234375 -3.140625 C 5.429688 -3.023438 5.773438 -2.96875 6.265625 -2.96875 L 10.078125 -2.96875 C 11.328125 -2.96875 12.269531 -2.640625 12.90625 -1.984375 C 13.539062 -1.335938 13.859375 -0.472656 13.859375 0.609375 C 13.859375 1.421875 13.644531 2.113281 13.21875 2.6875 C 12.789062 3.269531 12.21875 3.707031 11.5 4 C 10.78125 4.300781 10 4.453125 9.15625 4.453125 L 2.921875 4.453125 C 2.410156 4.453125 1.941406 4.332031 1.515625 4.09375 C 1.085938 3.851562 0.742188 3.523438 0.484375 3.109375 C 0.234375 2.691406 0.109375 2.226562 0.109375 1.71875 C 0.109375 1.164062 0.273438 0.664062 0.609375 0.21875 C 0.953125 -0.21875 1.378906 -0.550781 1.890625 -0.78125 C 1.546875 -1.019531 1.273438 -1.304688 1.078125 -1.640625 C 0.878906 -1.984375 0.78125 -2.351562 0.78125 -2.75 C 0.78125 -3.300781 0.984375 -3.800781 1.390625 -4.25 C 1.804688 -4.695312 2.316406 -5 2.921875 -5.15625 C 2.367188 -5.5 1.929688 -5.898438 1.609375 -6.359375 C 1.285156 -6.828125 1.125 -7.3125 1.125 -7.8125 C 1.125 -9.113281 1.648438 -10.039062 2.703125 -10.59375 C 3.753906 -11.15625 5.148438 -11.4375 6.890625 -11.4375 C 7.648438 -11.4375 8.265625 -11.394531 8.734375 -11.3125 C 9.421875 -11.75 9.863281 -12.144531 10.0625 -12.5 C 10.269531 -12.863281 10.375 -13.125 10.375 -13.28125 Z M 6.84375 -9.234375 C 6.375 -9.234375 5.988281 -9.113281 5.6875 -8.875 C 5.394531 -8.632812 5.25 -8.289062 5.25 -7.84375 C 5.25 -7.375 5.382812 -7.019531 5.65625 -6.78125 C 5.9375 -6.550781 6.332031 -6.4375 6.84375 -6.4375 C 7.351562 -6.4375 7.75 -6.550781 8.03125 -6.78125 C 8.320312 -7.019531 8.46875 -7.375 8.46875 -7.84375 C 8.46875 -8.300781 8.320312 -8.644531 8.03125 -8.875 C 7.75 -9.113281 7.351562 -9.234375 6.84375 -9.234375 Z M 5.21875 0 C 4.882812 0 4.613281 0.0859375 4.40625 0.265625 C 4.207031 0.441406 4.109375 0.691406 4.109375 1.015625 C 4.109375 1.335938 4.210938 1.597656 4.421875 1.796875 C 4.640625 1.992188 4.90625 2.09375 5.21875 2.09375 L 8.515625 2.09375 C 8.828125 2.09375 9.09375 2 9.3125 1.8125 C 9.53125 1.625 9.640625 1.363281 9.640625 1.03125 C 9.640625 0.707031 9.53125 0.453125 9.3125 0.265625 C 9.101562 0.0859375 8.835938 0 8.515625 0 Z M 5.21875 0 " />
            </g>
        </g>
    </g>
    <g fill="#F4EAF3"
       fill-opacity="1">
        <g transform="translate(168.295595, 261.895305)">
            <g>
                <path
                      d="M 1.421875 -12.5 L 1.421875 -15.359375 L 5.640625 -15.359375 L 5.640625 -12.5 Z M 1.421875 0 L 1.421875 -11.1875 L 5.640625 -11.1875 L 5.640625 0 Z M 1.421875 0 " />
            </g>
        </g>
    </g>
    <g fill="#F4EAF3"
       fill-opacity="1">
        <g transform="translate(175.350703, 261.895305)">
            <g>
                <path
                      d="M 8.734375 -11.1875 L 8.734375 -8.328125 L 6.359375 -8.328125 L 6.359375 -4.0625 C 6.359375 -3.5625 6.441406 -3.191406 6.609375 -2.953125 C 6.773438 -2.722656 7.085938 -2.609375 7.546875 -2.609375 L 8.734375 -2.609375 L 8.734375 -0.125 C 8.390625 -0.0078125 7.945312 0.078125 7.40625 0.140625 C 6.875 0.210938 6.410156 0.25 6.015625 0.25 C 4.773438 0.25 3.816406 0.0234375 3.140625 -0.421875 C 2.472656 -0.878906 2.140625 -1.648438 2.140625 -2.734375 L 2.140625 -8.328125 L 0.578125 -8.328125 L 0.578125 -11.1875 L 2.3125 -11.1875 L 3.21875 -14.578125 L 6.359375 -14.578125 L 6.359375 -11.1875 Z M 8.734375 -11.1875 " />
            </g>
        </g>
    </g>
    <g fill="#F4EAF3"
       fill-opacity="1">
        <g transform="translate(184.757521, 261.895305)">
            <g>
                <path
                      d="M 6.796875 -11.4375 C 8.503906 -11.4375 9.894531 -11.148438 10.96875 -10.578125 C 12.039062 -10.003906 12.578125 -9.078125 12.578125 -7.796875 L 12.578125 -3.4375 C 12.578125 -3.195312 12.632812 -3 12.75 -2.84375 C 12.863281 -2.6875 13.035156 -2.609375 13.265625 -2.609375 L 14.03125 -2.609375 L 14.03125 -0.171875 C 13.988281 -0.140625 13.878906 -0.09375 13.703125 -0.03125 C 13.523438 0.03125 13.269531 0.09375 12.9375 0.15625 C 12.613281 0.21875 12.242188 0.25 11.828125 0.25 C 11.003906 0.25 10.328125 0.128906 9.796875 -0.109375 C 9.265625 -0.359375 8.898438 -0.703125 8.703125 -1.140625 C 8.171875 -0.722656 7.570312 -0.382812 6.90625 -0.125 C 6.238281 0.125 5.460938 0.25 4.578125 0.25 C 1.953125 0.25 0.640625 -0.789062 0.640625 -2.875 C 0.640625 -3.96875 0.929688 -4.800781 1.515625 -5.375 C 2.097656 -5.945312 2.941406 -6.335938 4.046875 -6.546875 C 5.148438 -6.753906 6.59375 -6.859375 8.375 -6.859375 L 8.375 -7.421875 C 8.375 -7.859375 8.21875 -8.1875 7.90625 -8.40625 C 7.601562 -8.632812 7.210938 -8.75 6.734375 -8.75 C 6.296875 -8.75 5.914062 -8.671875 5.59375 -8.515625 C 5.28125 -8.359375 5.125 -8.113281 5.125 -7.78125 L 5.125 -7.6875 L 0.96875 -7.6875 C 0.957031 -7.757812 0.953125 -7.859375 0.953125 -7.984375 C 0.953125 -9.046875 1.457031 -9.882812 2.46875 -10.5 C 3.476562 -11.125 4.921875 -11.4375 6.796875 -11.4375 Z M 8.375 -4.875 C 7.164062 -4.875 6.273438 -4.742188 5.703125 -4.484375 C 5.140625 -4.222656 4.859375 -3.875 4.859375 -3.4375 C 4.859375 -2.726562 5.335938 -2.375 6.296875 -2.375 C 6.847656 -2.375 7.332031 -2.519531 7.75 -2.8125 C 8.164062 -3.113281 8.375 -3.484375 8.375 -3.921875 Z M 8.375 -4.875 " />
            </g>
        </g>
    </g>
    <g fill="#F4EAF3"
       fill-opacity="1">
        <g transform="translate(198.888931, 261.895305)">
            <g>
                <path
                      d="M 9.390625 0 L 9.109375 -1.6875 C 8.671875 -1.082031 8.09375 -0.609375 7.375 -0.265625 C 6.664062 0.078125 5.914062 0.25 5.125 0.25 C 3.820312 0.25 2.847656 -0.109375 2.203125 -0.828125 C 1.554688 -1.546875 1.234375 -2.582031 1.234375 -3.9375 L 1.234375 -11.1875 L 5.4375 -11.1875 L 5.4375 -4.453125 C 5.4375 -3.972656 5.5625 -3.585938 5.8125 -3.296875 C 6.0625 -3.003906 6.410156 -2.859375 6.859375 -2.859375 C 7.390625 -2.859375 7.816406 -3.023438 8.140625 -3.359375 C 8.460938 -3.703125 8.625 -4.125 8.625 -4.625 L 8.625 -11.1875 L 12.84375 -11.1875 L 12.84375 0 Z M 9.390625 0 " />
            </g>
        </g>
    </g>
    <path stroke-linecap="round"
          transform="matrix(0, -0.508673, 0.508673, 0, 158.855795, 209.710109)"
          fill="none"
          stroke-linejoin="miter"
          d="M 12.001109 12.002096 L 21.477359 12.002096 "
          stroke="#F4EAF3"
          stroke-width="24"
          stroke-opacity="1"
          stroke-miterlimit="4" />
</svg>